<?xml version="1.0" encoding="utf-8"?>
<svg version="1.1" id="Layer_1" xmlns="http://www.w3.org/2000/svg" xmlns:xlink="http://www.w3.org/1999/xlink" x="0px" y="0px"
    viewBox="0 0 1200 1200" style="enable-background:new 0 0 1200 1200;" xml:space="preserve">
<g id="Graphic_Elements">
    <path fill="#413757" d="M392.9,967.8c0,0-89.3-105.1-142.9-16.5"/>
    <path fill="#3C1E1E" d="M1039.8,1016.1c0,5.5-0.4,11-1.1,16.5c-3.1,24.8-13.7,48-30.6,66.4c-25.4,28.3-62,43.8-100,43.8H290.1
       c-18.8,0.1-37.5-3.8-54.7-11.3c-17.2-7.4-32.7-18.5-45.3-32.5c-17.4-19.4-31.4-46.4-31.6-82.9c-0.4-84.4,61.8-84.8,93.2-57.1
       c10.2-13.4,20.9-23.6,27.2-25c15-3.3,79.7,3.8,79.7,3.8s47.2,29.8,61.1,73.3c11.7,36.6,39.9,65.6,76.6,76.9
       c67.1,20.7,138.9,20.7,206,0l7.8-2.4c36.3-11.2,64.3-39.7,76.2-75.8c14.1-42.7,45.7-68.6,45.7-68.6s29.4-26.9,53.1-29.2
       c20.2-1.9,34.7,20.5,41.6,22c5.8,1.3,15.1,9.9,24.5,21.5c23.5-17.4,59.7-20.1,77.8,10.3c4.7,7.8,8.2,18,9.9,30.6
       c0.3,2.1,0.5,4.3,0.7,6.6c0,0.5,0.1,0.9,0.1,1.4C1039.7,1008.1,1039.8,1012,1039.8,1016.1"/>
    <path fill="none" stroke="#371A45" stroke-width="7.89" stroke-miterlimit="10" d="M358.5,937.7c0,0,45,28.4,60,70.2c12.9,35.9,39.9,64.9,75.3,79.1l2.3,0.9c67.1,20.7,138.9,20.7,206,0l6.8-2.1
       c36.3-11.2,65.3-39.1,76.9-75.2c4.5-13.8,11-26.9,19.2-38.9c14.7-21.8,35.6-38.7,60.1-48.3c6.7-2.7,13.6-4.6,20.8-5.4"/>
    <g opacity="0.2">
        <path fill="#3C1E1E" d="M1038.7,1032.5c-3.1,24.8-13.7,48-30.6,66.4c-25.4,28.3-62,43.8-100,43.8H289c-38,0-74.6-15.5-100-43.8
                c-16.8-18.4-27.5-41.7-30.6-66.4c3.9-2,6.1-3.1,6.1-3.1s18.9,60.3,65.6,64.8c50,4.8,71.5-46.2,71.5-46.2s5.7,53.2,79.4,59.8
                c16.6,1.5,220.3,6,220.3,6c71-4.1,203.1-4.9,214.6-6c73.7-6.7,67.5-70.6,67.5-70.6s31.8,50.6,69.5,50.6
                c69.1,0,79.5-58.4,79.5-58.4S1034.8,1030.5,1038.7,1032.5"/>
    </g>
    <path fill="#1E0F0F" d="M934.6,980.8c-4,0-7.3-3.3-7.3-7.3c0-1.3,0.3-2.5,0.9-3.6c6-10.4,14.7-19.1,25.2-25c3.5-2,7.9-0.8,9.9,2.7
       c2,3.5,0.8,7.8-2.6,9.9c-8.5,5-15.6,11.9-19.8,19.5C939.7,979.4,937.2,980.8,934.6,980.8"/>
    <path fill="#543333" d="M1041.5,1011.4c0,0.5-0.5-2.5-2.2-7.1c-4.3-12.1-15.9-41.7-47.1-45.2c-43-4.7-74.3,56.6-74.3,56.6l-1.5-4.5
       c4.7-10.8,12-26.6,18.1-37.7c17.5-31.2,70.9-47,94.1-7.8c4.1,14.3,8.1,28.5,10.6,37.2C1040.7,1007.9,1041.5,1011.1,1041.5,1011.4"
    />
    <path fill="#543333" d="M804.8,969.9c131.8-90.2,122.6,15.2,122.6,15.2c8.5-19.2,9.9-21.7,19.1-30.9c-5.4-11.4-32.2-31.6-32.2-31.6
       c-2.6-2.7-4.7-5.8-6.2-9.1c-0.5-1.1-40.6,8.2-41.1,7L804.8,969.9z"/>
    <path fill="#1E0F0F" d="M805.6,968.2c2.1-3,4.3-5.8,6.6-8.6s4.7-5.5,7.2-8.2c1.2-1.3,2.5-2.6,3.8-3.9s2.6-2.5,3.9-3.8
       c2.6-2.5,5.3-5,8.2-7.3s5.7-4.6,8.7-6.8c0.8-0.5,1.5-1.1,2.3-1.6l2.3-1.6l2.3-1.5c0.8-0.5,1.6-1,2.4-1.5c3.2-1.9,6.5-3.7,9.9-5.3
       c3.4-1.6,7-3.1,10.6-4.3c3.7-1.2,7.5-2.2,11.4-2.8c3.9-0.7,7.9-1,11.9-1c4.1,0.1,8.1,0.5,12.1,1.4c4,0.9,7.9,2.2,11.6,3.8
       c3.7,1.7,7.2,3.7,10.5,6.1c3.2,2.3,6.3,4.9,9.1,7.7c5.4,5.5,10.1,11.6,14,18.3c2,3.5,0.7,7.9-2.8,9.9c-3.2,1.8-7.1,1-9.3-1.9v-0.1
       c-3.9-5.3-8.2-10.3-12.9-14.9l-1.8-1.6l-0.9-0.8l-0.9-0.7c-0.6-0.5-1.2-1-1.8-1.5l-1.8-1.3c-2.5-1.8-5.2-3.4-7.9-4.8
       c-5.5-2.7-11.5-4.3-17.7-4.8c-3.1-0.2-6.3-0.2-9.4,0.1c-3.2,0.3-6.4,0.8-9.6,1.6c-6.5,1.6-12.9,3.9-18.9,6.8
       c-6.2,3-12.3,6.3-18.1,10.1c-2.9,1.9-5.8,3.9-8.7,5.9c-1.4,1-2.8,2.1-4.2,3.1c-1.4,1.1-2.8,2.1-4.2,3.2c-5.5,4.4-10.9,9-16.1,13.9
       l0,0c-0.4,0.4-1.1,0.4-1.5,0C805.4,969.2,805.3,968.6,805.6,968.2"/>
    <path fill="#1E0F0F" d="M908.2,1150H524.5c-4,0.1-7.4-3-7.5-7c-0.1-4,3-7.4,7-7.5c0.2,0,0.4,0,0.5,0h383.7c36.5,0,71-15.1,94.6-41.4
       c19.6-21.8,29.6-48.1,29.8-78.1c0.2-30.7-8.2-51.8-24.3-61.1c-13.2-7.6-31.3-6.6-47.4,2.7c-1.5,0.9-3,1.8-4.5,2.9
       c-3.4,2.1-7.9,1-10-2.4c-1.9-3.1-1.2-7.1,1.6-9.4c1.8-1.3,3.7-2.5,5.6-3.6c20.5-11.9,44.3-13,62-2.7c14.5,8.4,31.8,28,31.5,73.8
       c-0.2,33.7-11.4,63.2-33.5,87.7C987.3,1133.2,948.9,1150,908.2,1150"/>
    <path fill="#1E0F0F" d="M910.4,1023c0.3-1.6,0.7-3.3,1.1-4.9s0.8-3.2,1.3-4.8c0.8-3.2,1.8-6.4,2.8-9.5c2-6.3,4.1-12.6,6.6-18.8
       l0.9-2.3l0.9-2.3l1-2.3c0.3-0.8,0.7-1.5,1-2.3c0.7-1.5,1.4-3,2.2-4.6c0.2-0.4,0.4-0.7,0.6-1.1l0.7-1.2l0.7-1.2
       c0.2-0.4,0.5-0.8,0.7-1.2c2-3.1,4.3-6,6.9-8.6c2.5-2.6,5.4-4.9,8.5-6.8c3-1.9,7-1,8.9,2c1.6,2.6,1.2,5.9-0.9,8.1l-0.2,0.1
       c-2.1,2.1-4.2,4.1-6.1,6.3c-1.9,2.1-3.7,4.3-5.4,6.7c-0.4,0.6-0.8,1.2-1.2,1.7l-0.6,0.9l-0.6,1l-2.5,4c-1.7,2.7-3.3,5.5-5,8.3
       l-10,16.8c-1.7,2.8-3.4,5.6-5.2,8.4c-0.9,1.4-1.7,2.8-2.6,4.2s-1.8,2.8-2.7,4.2l0,0c-0.3,0.4-0.9,0.5-1.3,0.3c0,0,0,0,0,0
       C910.5,1023.7,910.3,1023.3,910.4,1023"/>
    <path fill="#543333" d="M158.4,1011.4c0,0.5,0.5-2.5,2.2-7.1c4.3-12.1,15.9-41.7,47.1-45.2c43-4.7,74.4,56.6,74.4,56.6l1.5-4.5
       c-4.7-10.8-12-26.6-18.1-37.7c-17.5-31.2-70.9-47-94.1-7.8c-4.1,14.3-8.1,28.5-10.6,37.2C159.3,1007.9,158.5,1011.1,158.4,1011.4"
    />
    <path fill="#543333" d="M395.3,969.9c-131.8-90.2-122.6,15.2-122.6,15.2c-8.5-19.2-9.9-21.7-19.1-30.9c5.4-11.4,32.2-31.6,32.2-31.6
       c2.6-2.7,4.7-5.8,6.2-9.1c0.5-1.1,40.6,8.2,41.1,7L395.3,969.9z"/>
    <path fill="#1E0F0F" d="M392.7,969.5c-5.1-4.9-10.5-9.5-16.1-13.9c-1.4-1.1-2.8-2.2-4.2-3.2s-2.8-2.1-4.2-3.2c-2.8-2.1-5.7-4-8.7-5.9
       c-5.8-3.8-11.8-7.1-18.1-10.1c-6.1-2.9-12.4-5.2-18.9-6.8c-3.2-0.7-6.4-1.3-9.6-1.6c-3.1-0.3-6.3-0.3-9.5-0.1
       c-6.1,0.5-12.1,2.1-17.6,4.8c-2.8,1.4-5.4,3-7.9,4.8l-1.9,1.4c-0.6,0.5-1.2,1-1.8,1.5l-0.9,0.8l-0.9,0.8l-1.8,1.6
       c-4.7,4.6-9,9.6-12.9,14.9h0c-2.4,3.2-7,3.9-10.2,1.5c-2.9-2.2-3.8-6.3-1.9-9.5c3.9-6.7,8.6-12.8,14-18.3c2.8-2.8,5.9-5.4,9.1-7.7
       c3.3-2.3,6.8-4.4,10.5-6.1c3.7-1.7,7.6-3,11.6-3.8c4-0.9,8-1.3,12.1-1.4c4,0,8,0.3,11.9,1c3.9,0.7,7.7,1.6,11.4,2.8
       c3.6,1.2,7.2,2.6,10.6,4.3c3.4,1.6,6.7,3.4,9.9,5.3c0.8,0.5,1.6,1,2.4,1.5l2.3,1.5l2.3,1.6l2.3,1.6c3,2.2,5.9,4.4,8.7,6.8
       s5.5,4.8,8.1,7.3c1.3,1.3,2.6,2.5,3.9,3.8c1.3,1.3,2.5,2.6,3.8,3.9c2.5,2.7,4.9,5.4,7.2,8.2s4.5,5.6,6.6,8.6
       c0.3,0.5,0.2,1.1-0.2,1.5C393.7,970,393.1,969.9,392.7,969.5L392.7,969.5z"/>
    <path fill="#1E0F0F" d="M675.5,1150H291.8c-40.6,0-79-16.8-105.4-46.2c-22-24.6-33.3-54.1-33.5-87.7c-0.2-45.7,17-65.3,31.5-73.8
       c17.7-10.2,41.4-9.2,62,2.7c1.9,1.1,3.8,2.3,5.6,3.6c3.4,2.2,4.3,6.7,2.1,10.1c-2.2,3.4-6.7,4.3-10.1,2.1c-0.2-0.1-0.3-0.2-0.4-0.3
       c-1.4-1-3-2-4.5-2.9c-16.1-9.3-34.2-10.4-47.4-2.7c-16.1,9.3-24.5,30.5-24.3,61.1c0.2,30,10.2,56.3,29.8,78.1
       c23.6,26.3,58.1,41.4,94.6,41.4h383.7c4-0.1,7.4,3,7.5,7c0.1,4-3,7.4-7,7.5C675.8,1150,675.6,1150,675.5,1150"/>
    <path fill="#1E0F0F" d="M287.4,1023.7c-0.9-1.4-1.8-2.8-2.7-4.2c-0.9-1.4-1.8-2.8-2.6-4.2c-1.8-2.8-3.5-5.6-5.1-8.4l-10-16.8
       c-1.7-2.8-3.3-5.5-5-8.3l-2.5-4l-0.6-1l-0.6-0.9c-0.4-0.6-0.8-1.2-1.2-1.7c-1.7-2.3-3.5-4.6-5.4-6.7c-1.9-2.2-4-4.2-6.1-6.3
       l-0.1-0.2c-2.6-2.5-2.6-6.6-0.1-9.1c2.1-2.2,5.6-2.6,8.1-0.9c3.1,1.9,5.9,4.2,8.5,6.8c2.6,2.6,4.9,5.5,6.9,8.6
       c0.2,0.4,0.5,0.8,0.7,1.2l0.7,1.2l0.7,1.2c0.2,0.4,0.4,0.8,0.6,1.2c0.7,1.5,1.5,3,2.1,4.6c0.3,0.8,0.7,1.5,1,2.3l1,2.3l1,2.3
       l0.9,2.3c2.4,6.2,4.6,12.4,6.6,18.8c1,3.2,1.9,6.3,2.8,9.5c0.4,1.6,0.9,3.2,1.3,4.8s0.8,3.2,1.1,4.9c0.1,0.5-0.2,1-0.7,1.1
       c0,0,0,0,0,0C288,1024.2,287.6,1024,287.4,1023.7L287.4,1023.7z"/>
    <path fill="#FFFFFF" d="M855.6,888.8c0,20.8-3.3,41.4-9.9,61.1c-30.7,92.2-129.1,159.7-245.7,159.7S385,1042.2,354.3,950
       c-13.4-40.1-13.2-83.4,0.4-123.4c2.7-8,5.9-15.8,9.6-23.3c4.4-9,9.5-17.7,15.1-26c2.4-3.6,4.9-7.1,7.6-10.5
       c45.8-59.4,124.1-98.6,212.9-98.6h0.6c88,0.2,165.5,38.8,211.4,97.3c0.6,0.7,1.2,1.5,1.7,2.2c2.6,3.4,5.1,6.8,7.4,10.3
       c0.2,0.2,0.3,0.5,0.5,0.7c4.5,6.8,8.7,13.9,12.4,21.1C848.1,827.4,855.5,858,855.6,888.8"/>
    <path fill="#3C1E1E" d="M821.1,778c-160.9,79.5-387.9,40-456.8,25.2c4.4-9,9.5-17.7,15.1-26c2.4-3.6,5-7.1,7.6-10.5
       c45.8-59.4,124.1-98.6,213-98.6h0.6c88,0.2,165.5,38.8,211.4,97.3c0.6,0.7,1.2,1.5,1.7,2.2C816.3,771.1,818.8,774.5,821.1,778"/>
    <g opacity="0.2">
        <path fill="#3C1E1E" d="M855.1,876.8c-1,16.6-4.2,33-9.5,48.8c-30.7,92.2-129.1,159.7-245.7,159.7s-215-67.5-245.7-159.6
                c-5.3-15.8-8.5-32.2-9.5-48.8c-0.3,4.1-0.4,8.2-0.4,12.4c0,20.8,3.3,41.4,9.9,61.1C385,1042.5,483.4,1110,600,1110
                s215-67.4,245.7-159.7c6.6-19.7,9.9-40.3,9.9-61.1C855.6,885.1,855.4,881,855.1,876.8"/>
    </g>
    <path fill="#1E0F0F" d="M600,674.6c-83.8,0-161.4,35.9-207.8,96.1c-27,35.1-41.3,75.9-41.3,118.2c0,118.2,111.7,214.3,249.1,214.3
       s249.1-96.1,249.1-214.3c0-41.8-14-82.4-40.6-117.2v-0.1c-0.5-0.7-1-1.3-1.6-2.1v-0.1c-46.3-59.2-123.4-94.7-206.2-94.8L600,674.6z
        M600,1116.1c-34.7,0.1-69.1-5.9-101.7-17.7c-30.5-11-58.7-27.4-83.3-48.5c-24.1-20.9-43.1-45.2-56.4-72.2
       c-13.7-27.6-20.8-58-20.8-88.8c0-45.2,15.2-88.8,44-126.1c48.8-63.3,130.3-101.1,218.1-101.1h0.6c43.4,0.1,86.4,9.6,124.3,27.4
       c36.8,17.3,68.7,42.4,92.2,72.5v0c0.6,0.7,1.2,1.5,1.8,2.3c28.3,37.1,43.2,80.4,43.2,125.1c0,30.8-7.1,61.2-20.7,88.8
       c-13.3,27.1-32.2,51.4-56.4,72.2c-24.6,21.1-52.8,37.5-83.3,48.5C669.1,1110.2,634.7,1116.2,600,1116.1"/>
    <g opacity="0.2">
        <path fill="#3C1E1E" d="M833.9,799.9c-184.5,90.4-405.4,45.8-479.2,26.8c2.7-8,5.9-15.8,9.6-23.3c4.4-9,9.5-17.7,15.1-26
                c2.4-3.6,5-7.1,7.6-10.5c45.8-59.4,124.1-98.6,212.9-98.6h0.6c88,0.2,165.5,38.8,211.4,97.3c0.6,0.8,1.2,1.5,1.7,2.2
                c2.6,3.4,5.1,6.8,7.4,10.3c0.2,0.2,0.3,0.5,0.5,0.7C826.1,785.6,830.2,792.6,833.9,799.9"/>
    </g>
    <path fill="#3C1E1E" d="M328.9,700.5c-66.7,26.3-68.4,155.9,6.7,219.7s182.6,75.7,223,26.4s-88.1-113.2-117.9-139.5
       S433.2,659.3,328.9,700.5"/>
    <path fill="#543333" d="M389.6,698.1c-11.5-1.3-25.8,0.9-44,8.1c-66.6,26.4-68.4,155.9,6.7,219.7c22.5,19.1,48.2,34,76,44
       c-33.9-9.6-65.4-26.4-92.3-49.2c-75-63.8-73.3-193.4-6.7-219.7C357.4,689.9,376.4,690.6,389.6,698.1"/>
    <g opacity="0.2">
        <path fill="#3C1E1E" d="M558.5,946.5c-40.5,49.2-148,37.4-223-26.4c-15.6-13.4-28.4-29.8-37.6-48.2c3.2,3.3,6.7,6.6,10.3,9.6
                c75.1,63.8,182.5,75.7,223,26.4c7.7-9.4,9.3-19.3,6.5-29.4C561.8,901,576,925.1,558.5,946.5"/>
    </g>
    <path fill="#1E0F0F" d="M366.3,698.6c-9.9,0-21.5,2.7-35,8c-22.6,8.9-38.6,32.3-43.8,64.2c-7.2,43.7,6.2,105.3,52.3,144.5
       c40.9,34.8,93.5,55.3,140.2,55.3c4.6,0,9.1-0.2,13.5-0.6c26.4-2.3,47.2-11.8,60-27.4c5.1-6.2,7.1-12.8,6-20.1
       c-1.8-12.5-12.7-27.4-32.3-44.5c-17.8-15.5-40.1-30.4-58.1-42.5c-13.8-9.3-25.8-17.3-32.8-23.5c-10.8-9.6-15.3-28.1-20-47.8
       c-5.9-24.2-12.5-51.7-31.5-61.5C379.1,699.8,372.8,698.4,366.3,698.6 M480.5,983.6c-21.5,0-44.7-4.1-67.8-12
       c-29.7-10.3-57.2-26-81.2-46.3c-22.3-19-39.4-44.6-49.3-74.2c-9.1-27.1-11.8-56.3-7.4-82.4c2.9-17.5,8.6-32.7,17.1-45.3
       c9.1-13.6,20.8-23.3,34.8-28.8l2.4,6.1l-2.4-6.1c27-10.7,48.1-11.8,64.4-3.3c24.2,12.6,31.6,43.1,38.1,70
       c4.3,17.6,8.3,34.3,16,41.2c6.4,5.7,18,13.4,31.4,22.4c18.3,12.2,41,27.5,59.4,43.4c22.3,19.4,34.3,36.6,36.7,52.4
       c1.6,11-1.4,21.1-8.9,30.2c-15.1,18.3-38.9,29.5-68.9,32.1C490.1,983.4,485.3,983.6,480.5,983.6"/>
    <path fill="#3C1E1E" d="M860.4,700.5c66.7,26.3,68.4,155.9-6.7,219.7s-182.5,75.7-223,26.4s88.2-113.2,117.9-139.5
       S756.1,659.3,860.4,700.5"/>
    <path fill="#543333" d="M799.8,698.1c11.5-1.3,25.8,0.9,44,8.1c66.7,26.4,68.4,155.9-6.7,219.7c-22.5,19.1-48.2,34-76,44
       c33.9-9.6,65.4-26.4,92.2-49.2c75-63.8,73.3-193.4,6.7-219.7C831.9,689.9,812.9,690.6,799.8,698.1"/>
    <g opacity="0.2">
        <path fill="#3C1E1E" d="M630.9,946.5c40.5,49.2,148,37.4,223-26.4c15.6-13.4,28.4-29.8,37.7-48.2c-3.2,3.3-6.7,6.6-10.3,9.6
                c-75.1,63.8-182.5,75.7-223,26.4c-7.7-9.4-9.3-19.3-6.5-29.4C627.6,901,613.4,925.1,630.9,946.5"/>
    </g>
    <path fill="#1E0F0F" d="M804.4,702.7c-18.9,9.8-25.6,37.3-31.5,61.5c-4.8,19.7-9.3,38.3-20,47.8c-7,6.2-19,14.2-32.8,23.5
       c-18,12-40.3,27-58.1,42.5c-19.6,17-30.5,32-32.3,44.5c-1.1,7.3,0.9,13.8,6,20.1c12.8,15.6,33.6,25.1,60,27.4
       c4.4,0.4,9,0.6,13.5,0.6c46.8,0,99.3-20.5,140.2-55.3c46.2-39.3,59.6-100.9,52.4-144.5c-5.3-31.8-21.2-55.2-43.8-64.2
       c-13.6-5.4-25.2-8-35-8C816.6,698.4,810.2,699.8,804.4,702.7 M694.6,982.9c-30-2.7-53.8-13.8-68.9-32.2
       c-7.5-9.1-10.5-19.3-8.9-30.2c2.3-15.8,14.3-33,36.7-52.4c18.4-16,41.1-31.2,59.4-43.5c13.4-9,25.1-16.8,31.4-22.4
       c7.7-6.8,11.8-23.5,16-41.2c6.5-26.9,13.9-57.5,38.1-70c16.3-8.5,37.3-7.3,64.4,3.3l-2.4,6.1l2.4-6.1c14,5.5,25.7,15.2,34.8,28.8
       c8.4,12.6,14.2,27.8,17.1,45.3c4.3,26.1,1.7,55.4-7.5,82.4c-10,29.5-27,55.2-49.3,74.1c-24,20.3-51.5,36-81.2,46.3
       c-23.1,8-46.3,12-67.8,12C704,983.5,699.2,983.3,694.6,982.9"/>
    <path fill="#3C1E1E" d="M246.8,176.9c4.4,22.9,13.8,44.6,27.5,63.4c9.4,12.6,27.5,13.9,39.2,3c6-5.6,12.1-10.9,18.2-16
       c26.8-22.1,53.5-38.6,71.2-48.8c1.7-1,3.3-1.9,4.9-2.8c1.1-0.6,2.2-1.3,3.2-2.1c6.7-5.1,10.6-13.1,10.7-21.5
       c-0.1-39.8-25.4-78.3-63.6-90.7c-4.3-1.4-8.6-2.5-13-3.3c-42.7-7.7-81.5,16-96,60.6c-0.8,2.5-1.5,5-2.1,7.6
       C243.2,142.3,243.5,159.8,246.8,176.9"/>
    <g opacity="0.2">
        <path fill="#3C1E1E" d="M246.8,176.9c23,21.8,53.2,39.2,85,50.4c26.8-22.1,53.5-38.6,71.2-48.8c1.7-1,3.3-1.9,4.9-2.8
                c1.1-0.6,2.2-1.3,3.2-2.1c-3.7,0.7-7.4,1.1-11.2,1.3c-66.7,1-120.1,2.2-152.8-48.6C243.3,142.3,243.5,159.8,246.8,176.9"/>
    </g>
    <path fill="#543333" d="M268.6,89.7c35.3-17.1,53.5-20.7,84.6-8.4c27.1,10.8,50,43,54.6,50.5c0.8-1.8,1.6-3.5,2.4-5.1
       c4.2-8.9,3.3-19.3-2.3-27.4C384.8,66.9,341.9,50,303.5,62c-4.3,1.3-8.4,2.9-12.5,4.8L268.6,89.7z"/>
    <path fill="#1E0F0F" d="M291.5,257.3c-9-1-17.1-5.7-22.5-12.9c-13.3-18.2-22.7-39-27.7-61c-5.4-24-4.9-47.1,1.4-66.7
       c8.3-25.4,24.6-45.6,45.9-56.8s46.8-13,71.6-4.9c19.9,6.5,37.1,19.5,49.6,37.7c12,17.5,18.5,38.2,18.7,59.4
       c0,5.9-1.5,11.6-4.4,16.7c-1.7,3.3-5.8,4.6-9.1,2.9s-4.6-5.8-2.9-9.1c0.1-0.1,0.2-0.3,0.2-0.4c1.7-3,2.7-6.5,2.7-10
       c-0.1-38.4-24.3-73.1-59-84.3c-21.3-7-43.1-5.5-61.2,4s-32.2,27-39.3,49c-11,34-1.1,81.5,24.2,115.6c3.3,4.6,8.5,7.4,14.2,7.6
       c3.7,0.2,6.5,3.4,6.3,7.1s-3.4,6.5-7.1,6.3L291.5,257.3"/>
    <path fill="#3C1E1E" d="M924.3,187.7c-6.9,22.3-18.7,42.8-34.4,60c-10.8,11.5-28.9,10.7-39.3-1.4c-5.3-6.2-10.8-12.2-16.3-17.9
       c-24.2-25-48.9-44.3-65.3-56.4c-1.6-1.2-3.1-2.2-4.5-3.3c-1.1-0.7-2.1-1.6-3-2.5c-6.1-5.9-9.1-14.2-8.2-22.6
       c4.5-39.5,33.9-74.9,73.3-83.1c4.4-0.9,8.8-1.5,13.3-1.8c43.3-2.9,79.2,25,88.6,70.9c0.5,2.6,0.9,5.2,1.2,7.8
       C931.8,153.8,929.5,171.1,924.3,187.7"/>
    <g opacity="0.2">
        <path fill="#3C1E1E" d="M924.3,187.7c-25.3,19.1-57.2,33-90,40.7c-24.2-25-48.9-44.3-65.3-56.4c-1.6-1.2-3.1-2.2-4.5-3.3
                c-1.1-0.7-2.1-1.6-3-2.5c3.6,1.1,7.3,1.9,11,2.6c66.2,8.4,119.1,15.5,157.3-31.3C931.8,153.8,929.5,171.1,924.3,187.7"/>
    </g>
    <path fill="#543333" d="M912.3,98.7c-33.2-21-50.8-26.6-83.1-17.8c-28.2,7.7-54.5,37.2-59.9,44.1c-0.6-1.9-1.2-3.6-1.8-5.3
       c-3.2-9.3-1.1-19.6,5.4-26.9c26.5-29.7,71-41.6,107.8-25.5c4.1,1.8,8.1,3.9,11.9,6.2L912.3,98.7z"/>
    <path fill="#1E0F0F" d="M869,262.5c-3.7-0.4-6.3-3.7-5.9-7.4c0.4-3.5,3.5-6.1,7-6c5.6,0.3,11.1-1.9,14.9-6c29-31,44.2-77.1,37-112.1
       c-4.7-22.7-16.6-41.6-33.6-53.1S850,62.7,828,67.2c-35.7,7.4-63.7,39.1-68,77.3c-0.4,3.5,0.1,7,1.5,10.2c1.5,3.4-0.1,7.4-3.5,8.8
       c-3.4,1.5-7.4-0.1-8.8-3.5l0,0c-2.3-5.4-3.2-11.2-2.5-17.1c2.5-21.1,11.2-40.9,25.1-56.9c14.4-16.7,32.9-27.8,53.5-32
       c25.6-5.3,50.6-0.7,70.6,12.8s33.9,35.3,39.3,61.5c4.2,20.2,2.1,43.2-6,66.4c-7.4,21.3-19.1,40.9-34.3,57.6
       c-6.5,7-15.9,10.8-25.4,10.3L869,262.5z"/>
    <path fill="#FFFFFF" d="M606.9,775.2c-220.8,4.6-426-87.3-406.7-314.7c1.9-22.8,5.6-45.5,10.9-67.8l0,0
       c34-106.7,111.1-201.4,205.3-260.1C524.2,77.4,651,73.4,761.9,121.8c7,3.5,13.8,7.2,20.6,11.2c97.5,59.9,177.3,157.4,209.6,267.9
       c3.2,13.8,5.8,28.1,7.9,42.9C1030.8,669.8,827.8,770.6,606.9,775.2"/>
    <g opacity="0.2">
        <path fill="#3C1E1E" d="M603.2,777.1c-220.8,4.7-425.9-87.3-406.7-314.7c0.2-2.3,0.4-4.6,0.6-6.8c27.7,172.1,177,274.9,405,270.1
                c235-4.9,372.7-113.2,393.5-284.5c0.2,1.5,0.4,3,0.6,4.4C1027.2,671.7,824.1,772.4,603.2,777.1"/>
    </g>
    <path fill="#1E0F0F" d="M406.7,153.2c15-9.7,30.6-18.4,46.8-26c16-7.6,32.5-14.2,49.3-19.9c44.8-11.5,91.2-14.9,137.2-10
       c15.8,1.7,31.5,4.5,46.8,8.6c16.3,5.2,32.4,11.4,48,18.5c15.8,7.2,31.1,15.2,46,24.1c123.6,79.2,219.4,221,211.9,371
       c-4.7,46-23.4,89.4-53.6,124.4c-64.8,75.9-186.5,121.2-333.8,124.3c-29.6,0.7-59.3-0.5-88.7-3.6C409.9,753.2,322,716.4,268.3,659.2
       c-23.8-25.1-41.5-55.3-51.9-88.3c-3.5-11.2-6.2-22.6-8.1-34.2C193.3,384.8,286.8,238.2,406.7,153.2 M1007.6,504.2
       c-0.3-35-5.5-69.8-15.5-103.3c-32.3-110.5-112-208-209.6-267.9c-6.8-3.9-13.6-7.6-20.6-11.2c-6.1-3.1-12.3-6.1-18.6-8.9
       c-26.7-12-54.6-21.1-83.2-27c-11.4-1.8-22.9-3-34.5-3.8s-23.2-1-34.8-0.8s-23.2,1-34.8,2.2s-23.1,3-34.5,5.2
       c-14.2,3.6-28.1,8-41.8,13.1c-13.7,5.1-27.2,11-40.3,17.5c-7.7,4.2-15.4,8.7-22.9,13.4c-94.2,58.6-171.3,153.4-205.3,260l0,0
       c-13.3,41.8-20,85.4-18.6,129.4c1.7,19.2,5.6,38.1,11.6,56.3c11.2,33.7,29.6,64.5,53.9,90.2c36.9,39.3,87.8,69.2,151.1,88.7
       c31,9.4,62.7,16,94.8,19.8c3.5,0.4,7,0.8,10.5,1.2c30.2,3.2,60.6,4.4,91,3.7c34.1-0.7,68.1-3.8,101.7-9.3
       c32.1-5.2,63.7-13.3,94.5-24c63-22.4,112.7-54.6,147.9-95.8c23-26.7,39.8-58.2,49.3-92.1C1004.2,542.5,1007,523.4,1007.6,504.2"/>
    <path fill="#F4A9BC" d="M876.4,629.5c-51.3,12.4-103-19.2-115.4-70.5c-12.4-51.3,19.2-103,70.5-115.4c51.3-12.4,103,19.2,115.4,70.5
       C959.3,565.4,927.8,617.1,876.4,629.5C876.4,629.5,876.4,629.5,876.4,629.5"/>
    <path fill="#F4A9BC" d="M363.6,638.9c-51.3,12.4-103-19.2-115.4-70.5c-12.4-51.3,19.2-103,70.5-115.4c51.3-12.4,103,19.2,115.4,70.5
       C446.6,574.8,415,626.5,363.6,638.9C363.7,638.9,363.7,638.9,363.6,638.9"/>
    <path fill="#3C1E1E" d="M639.6,492.1c0.6,12-25.5,30.4-41,31.1c-13.8,0.7-43.2-15.1-43.8-27s18-22.6,41.4-23.7S639,480.1,639.6,492.1"
    />
    <path fill="#3C1E1E" d="M685.3,496.2c-7.4-6.7-17.8,4.8-10.4,11.5c16.3,14.9,5.4,39.1-13.3,45.2c-20.7,6.8-41.1-5-53.8-20.9
       c-2.8-3.5-9.1-5.4-12.2-1c-12.2,17.1-30.7,32.7-53.2,29.6c-19.7-2.7-35-23.3-23.2-41.8c5.4-8.4-8.4-15.6-13.8-7.2
       c-15.3,24.1,0.7,54.4,26.2,62.4c26.9,8.5,52.9-5.7,70.1-25.9c18.7,18.7,45.6,29.3,71.2,16.8C698.9,552.4,707.7,516.5,685.3,496.2"
    />
    <path fill="#3C1E1E" d="M830.2,316.3c-7.1-17.8-15.4-36.4-31.4-48c-15.4-11.2-37.3-14.7-53.2-2.4c-3.7,2.9-5.3,7.9-2.5,12.1
       c2.4,3.7,8.3,5.4,12.1,2.5c4.7-3.6,10.5-5.4,16.4-4.9c6.7,0.7,13,3.3,18.2,7.7c12,9.8,18.3,24.4,23.9,38.4c1.8,4.4,6.3,7.1,11,5.6
       C828.8,325.9,831.9,320.6,830.2,316.3"/>
    <path fill="#3C1E1E" d="M339,339.9c5.4-18.4,11.9-37.7,26.7-50.7c14.2-12.6,35.7-18.2,52.8-7.5c4,2.5,6,7.4,3.7,11.8
       c-2,3.9-7.8,6.2-11.8,3.7c-5-3.2-11-4.4-16.8-3.4c-6.6,1.3-12.7,4.6-17.4,9.4c-11,10.9-15.9,26-20.1,40.5
       c-1.3,4.5-5.6,7.7-10.5,6.6C341.2,349.3,337.7,344.4,339,339.9"/>
    <path fill="#3C1E1E" d="M762.8,477c16.7,4.3,35.1,0.6,47.5-13.7c23.6-27.2,8.7-72.9-26.3-81.1c-39.1-9.1-75.7,35.1-54.2,70.6
       C737.2,464.9,749.1,473.6,762.8,477"/>
    <path fill="#3C1E1E" d="M403.8,489.5c16.8,4.3,35.1,0.6,47.5-13.7c23.6-27.2,8.7-72.9-26.4-81.1c-39.1-9.1-75.7,35.1-54.2,70.6
       C378.1,477.4,390,486,403.8,489.5"/>
    <path fill="#FFFFFF" d="M789.6,419.1c0,11.2-7.6,20.2-17,20.2s-17-9.1-17-20.2s7.6-20.2,17-20.2S789.6,407.9,789.6,419.1"/>
    <path fill="#FFFFFF" d="M430.5,427.1c0,11.2-7.6,20.2-17,20.2s-17-9.1-17-20.2s7.6-20.2,17-20.2S430.5,415.9,430.5,427.1"/>
</g>
</svg>