<?xml version="1.0" encoding="utf-8"?>
<!DOCTYPE svg PUBLIC "-//W3C//DTD SVG 1.1//EN" "http://www.w3.org/Graphics/SVG/1.1/DTD/svg11.dtd">
<svg version="1.1" id="Layer_1" xmlns="http://www.w3.org/2000/svg" xmlns:xlink="http://www.w3.org/1999/xlink" x="0px" y="0px"
	viewBox="0 0 1189.92 1704.619" style="enable-background:new 0 0 1189.92 1704.619;" xml:space="preserve">
<g>
    <path style="fill:#120E0C;stroke:#120E0C;stroke-width:0.0938;" d="M470.97,182.579c41.38-43.366,82.623-86.861,123.964-130.259c43.288,45.468,86.55,90.963,129.831,136.444
       c12.986-5.056,25.966-10.144,38.953-15.219c5.237,13.48,10.475,26.953,15.719,40.426c62.225-0.337,124.451-0.032,186.676-0.175
       c0.149,69.52-0.032,139.04-0.013,208.56c14.408,6.97,28.815,13.927,43.223,20.891c-4.128,10.403-8.268,20.807-12.363,31.223
       c40.99,43.035,82.065,85.992,123.055,129.026c-44.703,46.76-89.295,93.624-134.004,140.384c8.21,21.41,16.66,42.736,24.98,64.101
       c-14.972,5.828-29.964,11.61-44.917,17.49c0.169,55.878,0.045,111.757,0.084,167.635c-35.863,0.013-71.727-0.02-107.59,0.019
       c4.796,22.916,8.359,46.091,10.76,69.377c3.362,30.918,4.238,62.05,4.03,93.13c10.241,6.84,16.958,17.601,22.539,28.316
       c10.592,21.579,16.802,45.027,21.287,68.553c4.893,25.908,7.379,52.218,8.489,78.547c0.513,14.933,0.402,29.88,0.409,44.826
       c0.013,42.1-0.026,84.2,0.019,126.3c9.268,7.035,17.348,16.53,20.034,28.095c1.395,4.874,0.993,9.982,1.038,14.992
       c-0.006,17.192,0.013,34.377-0.006,51.569c-23.74,0.006-47.48,0-71.22,0c-6.886,0.863-13.836,0.35-20.761,0.487
       c-19.957,0-39.907,0.006-59.863,0c-0.071,18.334,0.078,36.668-0.071,55.002H602.93c-0.318-18.328-0.019-36.675-0.149-55.002
       c-1.889-0.013-3.771-0.013-5.653,0.006c-0.019,18.334,0.026,36.662-0.019,54.996H404.565c-0.078-18.334-0.007-36.661-0.032-54.996
       c-26.959,0-53.912-0.026-80.871,0.013c-3.485,0.208-6.912-0.701-10.397-0.519c-21.527,0.039-43.048,0-64.568,0.013
       c0.045-19.781-0.104-39.569,0.071-59.35c0.649-16.069,11.883-29.575,24.908-37.934c0.201-39.719,0.026-79.443,0.084-119.162
       c0.019-20.235-0.149-40.484,1.071-60.687c0.811-15.719,2.382-31.398,4.549-46.981c3.887-26.349,9.417-52.659,19.496-77.392
       c4.66-11.299,10.358-22.345,18.431-31.606c0.74-0.701,0.727-1.739,0.759-2.654c-0.071-24.272,0.156-48.564,1.863-72.785
       c2.174-31.976,6.47-63.809,12.993-95.188c-36.428,0.032-72.862,0.006-109.29,0.013c-0.058-31.638,0.136-63.277,0.078-94.915
       c-0.071-35.831,0.24-71.655,0-107.48c-15.835-7.528-31.573-15.251-47.376-22.838c4.926-12.435,9.839-24.882,14.797-37.304
       c-40.374-42.405-80.832-84.719-121.225-127.099c43.255-45.416,86.64-90.71,129.844-136.178
       c-8.443-21.378-16.738-42.814-25.122-64.211c16.381-6.328,32.722-12.74,49.109-19.048c0.117-31.106-0.117-62.212-0.026-93.325
       c0.071-25.635-0.247-51.27-0.006-76.906c57.28,0.013,114.56,0.091,171.834-0.039c7.392-18.996,14.985-37.908,22.384-56.904
       C435.639,165.355,453.285,174.006,470.97,182.579 M473.793,183.78c14.511,7.262,29.185,14.206,43.768,21.332
       c25.038-27.024,50.122-54.009,75.088-81.098c2.557,2.057,4.53,4.712,6.808,7.061c24.266,26.025,48.285,52.289,72.655,78.217
       c16.562-6.444,33.086-12.993,49.674-19.372c-2.479-3.141-5.497-5.808-8.151-8.8c-39.569-41.587-79.099-83.207-118.694-124.775
       C554.528,98.788,514.089,141.219,473.793,183.78 M571.46,151.142c-17.062,18.412-34.111,36.824-51.18,55.223
       c23.214,11.448,46.572,22.611,69.819,33.981c0.649,0.409,1.33,0.467,2.051,0.175c25.629-9.923,51.167-20.086,76.828-29.938
       c-0.292-0.474-0.604-0.928-0.928-1.363c-25.058-27.005-50.05-54.081-75.153-81.046C585.595,135.683,578.631,143.516,571.46,151.142
        M419.304,160.832c-23.163,59.123-46.604,118.136-69.832,177.233c-5.354,2.258-10.832,4.218-16.231,6.38
       c-51.66,20.008-103.248,40.212-154.94,60.123c3.063,8.43,6.496,16.725,9.709,25.103c20.612,52.789,41.224,105.578,61.842,158.367
       c0.305,0.824,0.234,1.642-0.214,2.46c-23.247,58.656-46.546,117.299-69.715,175.994c53.944,26.206,107.986,52.205,161.976,78.327
       c3.251,1.759,6.886,2.966,9.91,5.075c3.245,7.866,6.185,15.868,9.326,23.786c20.709,53.393,41.594,106.714,62.193,160.145
       c2.719-0.63,5.231-1.889,7.84-2.836c53.191-20.794,106.389-41.555,159.574-62.355c1.707-0.552,3.55-1.992,5.296-0.746
       c56.696,27.543,113.437,55.009,170.12,82.584c23.37-58.877,46.507-117.844,69.825-176.734c0.24-0.642,0.701-1.045,1.382-1.207
       c51.997-20.21,103.988-40.439,155.985-60.655c4.653-1.921,9.488-3.446,14.025-5.646c-23.656-60.311-47.136-120.687-70.773-181.004
       c-0.402-1.305-1.441-2.648-0.779-4.03c23.299-58.857,46.669-117.688,69.961-176.552c-57.306-27.79-114.729-55.366-171.99-83.246
       c-23.799-61.447-47.818-122.815-71.61-184.262c-57.072,22.196-114.06,44.625-171.139,66.794
       c-55.748-27.095-111.529-54.126-167.284-81.215C422.328,161.967,420.861,161.273,419.304,160.832 M226.397,216.567
       c-0.065,55.424,0.11,110.848,0.084,166.272c16.776-6.464,33.553-12.934,50.271-19.554c0.006-32.703-0.156-65.399-0.143-98.095
       c2.038-0.24,4.095-0.182,6.152-0.156c20.119-0.006,40.238,0,60.363-0.006c10.741-0.104,21.501,0.221,32.235-0.162
       c6.152-16.095,12.642-32.067,18.886-48.129c-24.616-0.117-49.239-0.013-73.862-0.052c-19.243-0.084-38.498,0.201-57.734-0.195
       C250.566,216.548,238.481,216.392,226.397,216.567 M780.591,216.749c6.243,16.082,12.461,32.177,18.782,48.24
       c36.493,0.084,72.986,0.052,109.478,0.013c0.299,7.068,0.045,14.142,0.13,21.216c0.006,35.675-0.013,71.357,0.006,107.032
       c-0.13,0.928,0.227,1.837,1.227,2.07c17.756,8.489,35.435,17.14,53.178,25.648c-0.019-33.248-0.123-66.496,0.071-99.744
       c0.02-34.857-0.032-69.721,0.026-104.585c-22.468-0.48-44.943,0.169-67.417,0.045C857.581,216.729,819.083,216.606,780.591,216.749
        M279.543,267.967c-0.039,31.424-0.019,62.842-0.007,94.266c22.059-8.469,44.041-17.133,66.093-25.622
       c0.889-0.35,1.902-0.74,2.083-1.817c8.69-22.293,17.666-44.475,26.245-66.814C342.489,267.928,311.013,267.954,279.543,267.967
        M800.561,267.987c11.76,30.444,23.591,60.869,35.493,91.255c3.797,2.356,8.054,3.933,12.026,6.01
       c19.34,9.242,38.518,18.853,57.974,27.842c0.052-22.234-0.097-44.462,0.097-66.697c0.039-19.424-0.071-38.855,0.058-58.28
       c-15.277-0.376-30.581-0.052-45.871-0.162C840.415,267.974,820.485,267.909,800.561,267.987 M173.848,498.515
       c-33.365,35-66.82,69.922-100.094,105.007c28.335,29.659,56.638,59.35,84.96,89.029c11.234,11.636,22.215,23.526,33.592,35.02
       c6.393-16.536,13.064-32.975,19.528-49.479c0.337-0.746,0.201-1.376-0.402-1.882c-21.644-23.195-43.171-46.5-64.841-69.676
       c-1.168-0.766-0.162-1.752,0.467-2.395c24.22-25.986,48.363-52.049,72.577-78.041c0.74-0.98,2.525-1.908,1.694-3.342
       c-6.86-17.451-13.642-34.929-20.489-52.387C191.689,479.597,182.856,489.137,173.848,498.515 M995.706,477.605
       c-7.34,18.827-14.862,37.583-22.293,56.371c22.072,23.928,44.359,47.662,66.424,71.597c-25.058,27.186-50.401,54.12-75.452,81.312
       c-0.383,2.654,1.824,5.419,2.525,8.112c6.023,15.29,11.877,30.645,18.003,45.89c12.175-12.428,24.013-25.174,36.11-37.68
       c31.612-33.248,63.413-66.321,94.954-99.62c-0.785-1.648-2.492-2.726-3.641-4.141c-37.356-39.212-74.777-78.353-112.139-117.552
       C998.724,480.434,997.504,478.682,995.706,477.605 M193.435,558.398c-14.362,15.485-28.763,30.924-43.119,46.403
       c-0.591,0.461-0.617,0.941-0.078,1.441c14.064,15.134,28.147,30.256,42.204,45.397c7.022,7.418,13.798,15.083,20.962,22.364
       c11.228-27.9,22.163-55.924,33.319-83.856c0.389-0.766,0.337-1.629-0.013-2.388c-7.95-20.294-15.855-40.614-23.805-60.908
       C212.937,537.234,203.3,547.923,193.435,558.398 M939.069,620.597c-0.474,0.922-0.61,1.979-0.084,2.927
       c7.879,20.203,15.848,40.367,23.63,60.609c1.888-1.227,3.199-3.096,4.757-4.686c22.883-24.629,45.806-49.226,68.676-73.868
       c-21.144-22.994-42.645-45.663-63.705-68.728C961.135,564.719,950.218,592.71,939.069,620.597 M226.488,792.334
       c-0.013,31.184,0.11,62.375-0.084,93.559c-0.019,34.805,0.026,69.611-0.019,104.416c49.732,0.091,99.471,0.013,149.21,0.039
       c9.274,0.091,18.529-0.357,27.803-0.188c-5.464-14.148-11.026-28.257-16.458-42.412c-0.344-0.72-0.552-1.966-1.616-1.759
       c-18.814-0.071-37.629,0-56.443-0.032c-17.38,0.389-34.773,0.11-52.16,0.201c-0.208-8.833-0.032-17.679-0.091-26.511
       c0.117-34.358,0.091-68.715,0.123-103.073c-4.679-2.525-9.553-4.679-14.317-7.048C250.423,803.853,238.592,797.785,226.488,792.334
        M279.556,817.787c-0.065,41.802-0.019,83.603-0.026,125.405c35.156,0.065,70.318,0.052,105.481,0.007
       c-0.974-3.2-2.349-6.243-3.511-9.358c-10.676-27.414-21.268-54.846-32.002-82.234C326.186,840.32,302.855,829.093,279.556,817.787
        M953.47,830.404c-14.81,5.769-29.626,11.52-44.436,17.283c-0.149,32.807,0.045,65.62-0.097,98.426
       c-32.839,0.273-65.672-0.441-98.51-0.065c-5.796,14.7-11.533,29.425-17.419,44.086c19.853,0.357,39.712,0.169,59.571,0.214
       c36.967-0.019,73.927,0.032,110.893-0.026c-0.02-19.463,0-38.92-0.007-58.383c0.084-35.072-0.188-70.143-0.084-105.215
       C959.986,827.684,956.78,829.196,953.47,830.404 M838.429,875.132c-8.937,22.663-17.925,45.306-26.79,67.995
       c31.184,0.214,62.375,0.071,93.565,0.071c1.305,0.24,0.863-1.447,0.98-2.168c-0.065-30.717,0.013-61.434-0.201-92.144
       C883.457,857.603,860.956,866.397,838.429,875.132 M552.315,986.674c-11.851,4.738-23.863,9.099-35.61,14.077
       c8.184,9.235,16.763,18.126,25.077,27.251c17.036,18.328,34.014,36.713,51.043,55.047c23.915-25.661,47.688-51.465,71.571-77.159
       c0.519-0.461,0.999-1.506-0.032-1.707c-13.564-6.581-27.128-13.174-40.698-19.749c-9.806-4.66-19.476-9.696-29.38-14.083
       C580.247,975.655,566.313,981.255,552.315,986.674 M335.701,993.184c-4.848,22.838-8.379,45.955-10.741,69.183
       c-3.595,32.43-4.29,65.094-4.128,97.699c6.412-6.003,15.394-10.299,24.324-8.301c9.657,2.057,17.056,9.345,22.741,17.023
       c8.177,11.156,13.635,24.013,18.334,36.947c10.436,30.386,15.699,62.297,18.6,94.214c3.303,33.637,2.362,67.469,2.505,101.217
       c0.071,31.048-0.136,62.109,0.104,93.15c4.472,2.09,8.632,4.77,12.584,7.723c7.691,5.912,14.797,13.252,18.25,22.481
       c-0.019-146.478-0.007-292.949-0.007-439.426c0.909-0.013,1.817-0.006,2.739,0.013c-0.013,148.399-0.013,296.804-0.007,445.209
       c0.234,5.906,0.37,11.818,0.305,17.737c18.1-8.599,38.239-12.279,58.195-12.513c19.385-0.058,38.985,3.037,56.871,10.715
       c0.019-129.494,0.007-258.987,0.007-388.48c-0.097-14.55,0.201-29.133-0.143-43.664c-2.408-2.998-5.289-5.594-7.872-8.443
       c-27.095-28.556-54.308-57.007-81.364-85.609c-15.076,5.698-30.055,11.662-45.06,17.549c-5.854-14.849-11.63-29.73-17.361-44.625
       c-20.683-0.091-41.373-0.013-62.063-0.039C340.269,993.086,337.842,992.639,335.701,993.184 M791.838,993.002
       c-7.963,20.469-16.102,40.867-24.143,61.304c-17.607-8.58-35.266-17.062-52.854-25.7c-23.708,24.954-47.539,49.81-71.13,74.861
       c-0.545,5.283-0.078,10.695-0.227,16.03c-0.019,142.266,0.026,284.538-0.026,426.803c17.795-7.716,37.343-10.78,56.651-10.767
       c18.613,0.221,37.349,3.368,54.522,10.708c-0.253-7.587-0.052-15.433,3.258-22.416c1.493-2.804,0.857-6.036,0.974-9.053
       c0.006-140.416,0-280.832,0.006-421.242c0.902-0.013,1.817-0.006,2.739,0.013c-0.019,141.039-0.006,282.085-0.006,423.124
       c7.704-10.955,18.938-18.905,31.002-24.441c0.019-43.541,0.006-87.088,0.013-130.629c-0.071-23.597,0.798-47.214,3.303-70.682
       c2.959-26.479,7.418-52.919,15.517-78.353c4.64-14.447,10.377-28.724,18.873-41.373c5.685-8.216,12.973-16.277,22.935-19.035
       c5.795-1.83,12.045-0.623,17.438,1.902c0.013-22.358-0.331-44.735-1.966-67.034c-2.265-31.593-6.425-63.082-12.96-94.078
       C834.451,992.983,813.145,992.866,791.838,993.002 M511.714,1002.51c-13.953,5.575-28.03,10.845-41.951,16.497
       c41.769,43.8,83.389,87.744,125.171,131.525c36.11-37.836,72.103-75.789,108.161-113.677c2.953-3.174,6.114-6.165,8.859-9.527
       c-14.278-7.029-28.621-13.908-42.924-20.878c-1.35-0.967-2.129,1.071-3.005,1.772c-20.781,22.501-41.639,44.93-62.453,67.404
       c-3.699,3.79-7.022,7.95-10.929,11.533c-25.908-28.29-52.147-56.274-78.139-84.479
       C513.862,1001.569,512.616,1002.166,511.714,1002.51 M594.934,1154.582c-11.98-12.5-23.863-25.097-35.831-37.609
       c0.019,130.85,0.006,261.693,0.013,392.543c0.084,12.701-0.182,25.408,0.13,38.102c9.235,3.998,17.756,9.728,24.837,16.893
       c7.775,7.97,13.181,18.724,13.071,30.029c1.863,0.006,3.725,0.006,5.594,0.02c0.078-6.795,1.921-13.538,5.211-19.463
       c7.262-12.714,19.703-21.579,32.781-27.608c0.058-147.01-0.065-294.02,0.058-441.029
       C625.456,1122.45,610.263,1138.584,594.934,1154.582 M327.114,1158.625c-4.848,3.264-8.697,7.775-12.169,12.422
       c-7.697,10.702-12.889,22.935-17.354,35.266c-5.036,14.459-8.781,29.347-11.76,44.359c-5.737,30.133-8.515,60.791-9.086,91.443
       c-0.37,17.081-0.143,34.163-0.201,51.251c-0.013,34.689,0.019,69.377-0.019,104.066c5.886-3.089,11.766-6.256,18.061-8.469
       c12.59-4.796,25.979-7.288,39.387-8.307c24-1.512,48.635,1.875,70.552,12.091c-0.026-44.372-0.006-88.743-0.013-133.115
       c0.045-16.212-0.35-32.43-1.532-48.597c-2.252-29.282-6.055-58.591-13.966-86.932c-3.608-13.33-8.203-26.44-14.356-38.816
       c-4.303-8.424-9.358-16.634-16.277-23.169c-4.549-4.173-10.215-7.574-16.497-8.002
       C336.603,1153.706,331.424,1155.685,327.114,1158.625 M842.155,1161.565c-7.055,6.451-12.247,14.641-16.575,23.091
       c-6.691,13.285-11.494,27.446-15.316,41.795c-9.456,35.357-13.162,71.98-14.602,108.466c-0.532,27.271-0.24,54.548-0.312,81.825
       c-0.013,24.759,0.013,49.518-0.013,74.277c26.18-11.065,55.658-13.084,83.499-8.236c15.732,2.947,31.262,8.333,44.534,17.426
       c-0.019-41.029-0.006-82.052-0.006-123.082c0.058-23.798,0.136-47.649-1.999-71.376c-2.278-27.991-6.23-55.969-13.914-83.032
       c-3.433-12.61-7.892-24.96-13.57-36.727c-4.686-9.151-10.131-18.185-17.951-25.012c-4.692-3.959-10.579-7.029-16.854-6.912
       C852.701,1154.16,846.827,1157.437,842.155,1161.565 M336.622,1483.296c-22.488,1.201-45.293,7.1-63.932,20.125
       c-9.294,6.853-17.646,16.127-20.249,27.673c-1.246,4.394-0.902,9.002-0.948,13.519c0.007,16.53-0.019,33.06,0.013,49.589
       c51.024-0.039,102.054,0.11,153.078-0.071c-0.052-8.619,3.213-17.023,8.249-23.928c6.626-8.891,15.712-15.751,25.603-20.631
       c0.156-3.187,0.065-6.36,0.091-9.534c0.227-6.347-1.493-12.662-4.433-18.25c-5.406-9.845-14.239-17.367-23.857-22.929
       C388.009,1486.301,361.9,1482.083,336.622,1483.296 M812.677,1487.904c-14.025,3.901-27.79,9.865-38.933,19.411
       c-7.132,6.269-13.233,14.278-15.349,23.695c-1.428,5.374-0.986,10.987-0.999,16.491c11.351,5.127,21.981,12.448,29.529,22.481
       c5.192,6.951,8.424,15.491,8.469,24.22c49.687,0.02,99.374-0.013,149.054,0.02c0.039-18.86,0.065-37.719-0.013-56.579
       c-0.474-13.596-9.326-25.311-19.846-33.209c-13.259-9.884-29.198-15.621-45.319-18.782
       C857.257,1481.693,834.347,1482.213,812.677,1487.904 M456.757,1544.853c-11.799,3.946-23.325,9.352-32.846,17.484
       c-7.223,6.302-13.428,14.336-15.602,23.844c-1.22,4.192-0.954,8.593-0.974,12.915c0.013,16.757-0.019,33.514,0.013,50.277
       c62.323,0,124.639,0,186.955,0c0.045-18.269-0.006-36.538,0.026-54.801c0.273-11.39-5.724-22.066-13.843-29.704
       c-7.184-7.113-16.121-12.182-25.343-16.173c-10.332-4.348-21.235-7.301-32.333-8.82
       C500.785,1536.799,478.025,1538.201,456.757,1544.853 M637.943,1551.901c-7.314,3.764-14.226,8.476-19.95,14.421
       c-7.178,7.321-12.337,17.108-12.402,27.537c-0.013,18.509-0.032,37.012,0.013,55.521c62.329-0.006,124.652-0.019,186.981,0.007
       c0.058-18.516,0.026-37.025,0.019-55.541c-0.078-11.059-5.854-21.326-13.694-28.822c-6.47-6.308-14.239-11.189-22.429-14.946
       c-17.211-7.976-36.24-11.409-55.119-11.74C679.602,1538.071,657.438,1541.939,637.943,1551.901z"/>
	<path style="fill:#773E18;stroke:#773E18;stroke-width:0.0938;" d="M473.793,183.78c40.296-42.561,80.735-84.992,121.147-127.436c39.595,41.568,79.125,83.188,118.694,124.775
       c2.654,2.992,5.672,5.659,8.151,8.8c-16.588,6.38-33.112,12.928-49.674,19.372c-24.37-25.927-48.389-52.192-72.655-78.217
       c-2.278-2.349-4.251-5.004-6.808-7.061c-24.967,27.089-50.05,54.074-75.088,81.098C502.978,197.986,488.305,191.042,473.793,183.78
       z"/>
	<path style="fill:#773E18;stroke:#773E18;stroke-width:0.0938;" d="M571.46,151.142c7.171-7.626,14.135-15.459,21.436-22.968c25.103,26.966,50.096,54.042,75.153,81.046
       c0.325,0.435,0.636,0.889,0.928,1.363c-25.661,9.852-51.199,20.015-76.828,29.938c-0.72,0.292-1.402,0.234-2.051-0.175
       c-23.247-11.37-46.604-22.533-69.819-33.981C537.349,187.966,554.398,169.554,571.46,151.142z"/>
	<path style="fill:#773E18;stroke:#773E18;stroke-width:0.0938;" d="M419.304,160.832c1.558,0.441,3.024,1.136,4.459,1.882c55.755,27.089,111.536,54.119,167.284,81.215
       c57.079-22.17,114.067-44.599,171.139-66.794c23.792,61.447,47.811,122.815,71.61,184.262
       c57.261,27.881,114.683,55.456,171.99,83.246c-23.292,58.864-46.663,117.695-69.961,176.552c-0.662,1.382,0.376,2.726,0.779,4.03
       c23.636,60.317,47.117,120.693,70.773,181.004c-4.536,2.2-9.372,3.725-14.025,5.646c-51.997,20.216-103.988,40.445-155.985,60.655
       c-0.681,0.162-1.142,0.565-1.382,1.207c-23.318,58.89-46.455,117.857-69.825,176.734c-56.683-27.576-113.424-55.041-170.12-82.584
       c-1.746-1.246-3.589,0.195-5.296,0.746c-53.185,20.8-106.383,41.561-159.574,62.355c-2.609,0.947-5.121,2.207-7.84,2.836
       c-20.599-53.432-41.484-106.753-62.193-160.145c-3.141-7.918-6.081-15.92-9.326-23.786c-3.024-2.109-6.659-3.316-9.91-5.075
       c-53.99-26.122-108.031-52.121-161.976-78.327c23.169-58.695,46.468-117.338,69.715-175.994c0.448-0.818,0.519-1.635,0.214-2.46
       c-20.618-52.789-41.23-105.578-61.842-158.367c-3.213-8.379-6.646-16.673-9.709-25.103c51.692-19.911,103.281-40.114,154.94-60.123
       c5.4-2.161,10.877-4.121,16.231-6.38C372.7,278.968,396.141,219.955,419.304,160.832 M447.548,248.491
       c-11.52,27.861-23.039,55.722-34.559,83.59c-3.693,8.69-7.055,17.549-10.948,26.148c-2.038,1.084-4.342,1.584-6.47,2.473
       c-19.106,7.489-35.247,22.234-44.443,40.575c-0.591,1.064-0.941,2.538-2.278,2.907c-35.714,13.921-71.461,27.757-107.168,41.698
       c11.507,29.99,23.37,59.85,34.981,89.795c0.357,0.759-0.435,1.408-0.72,2.057c-3.615,5.406-5.653,11.909-5.568,18.425
       c-0.175,10.131,4.809,20.028,12.571,26.44c4.329,3.706,9.612,5.99,14.959,7.768c1.571,3.193,2.674,6.62,3.965,9.936
       c-20.716,49.972-41.613,99.867-62.167,149.898c33.903,15.719,67.813,31.437,101.73,47.13c1.285,0.286,1.356,1.7,1.519,2.765
       c1.116,9.053,3.836,17.899,7.95,26.038c10.793,21.806,31.431,38.589,55.132,44.274c1.285,0.052,1.622,1.415,2.051,2.395
       c12.954,33.352,25.869,66.723,38.933,100.029c49.038-19.126,98.063-38.291,147.094-57.429c0.72-0.435,1.48-0.11,2.168,0.221
       c45.034,20.988,90.093,41.925,135.133,62.894c3.634,1.499,7.042,3.628,10.793,4.796c0.915-1.22,1.279-2.745,1.895-4.115
       c11.078-26.797,22.17-53.587,33.248-80.384c4.498-10.63,8.677-21.43,13.363-31.969c3.44-2.018,7.288-3.297,10.624-5.516
       c15.66-9.183,28.121-23.532,35.175-40.25c38.576-15.284,77.405-29.964,115.949-45.306
       c-20.132-51.361-40.121-102.787-60.259-154.142c20.69-50.018,41.529-99.964,62.238-149.969
       c-37.856-17.75-75.932-35.085-113.762-52.867c-1.85-5.341-3.329-10.961-6.029-16.011c-8.554-18.113-23.915-32.826-42.236-40.854
       c-1.051-0.402-1.96-1.116-2.239-2.252c-14.252-36.889-28.737-73.687-42.911-110.608c-4.997,1.389-9.696,3.686-14.576,5.445
       c-43.1,16.854-86.212,33.689-129.318,50.544c-1.486,0.526-2.914,1.363-4.497,1.512c-2.946-1.175-5.744-2.693-8.651-3.959
       c-46.085-21.475-92.215-42.853-138.281-64.374C450.235,241.547,449.041,245.084,447.548,248.491z"/>
	<path style="fill:#773E18;stroke:#773E18;stroke-width:0.0938;" d="M226.397,216.567c12.084-0.175,24.168-0.019,36.253-0.078c19.236,0.396,38.492,0.11,57.734,0.195
       c24.623,0.039,49.246-0.065,73.862,0.052c-6.243,16.063-12.733,32.034-18.886,48.129c-10.734,0.383-21.495,0.058-32.235,0.162
       c-20.125,0.006-40.244,0-60.363,0.006c-2.057-0.026-4.115-0.084-6.152,0.156c-0.013,32.696,0.149,65.392,0.143,98.095
       c-16.718,6.62-33.495,13.09-50.271,19.554C226.508,327.415,226.332,271.991,226.397,216.567z"/>
	<path style="fill:#773E18;stroke:#773E18;stroke-width:0.0938;" d="M780.591,216.749c38.492-0.143,76.99-0.019,115.482-0.065c22.475,0.123,44.949-0.526,67.417-0.045
       c-0.058,34.864-0.006,69.728-0.026,104.585c-0.195,33.248-0.091,66.496-0.071,99.744c-17.743-8.508-35.422-17.159-53.178-25.648
       c-0.999-0.234-1.356-1.142-1.227-2.07c-0.019-35.675,0-71.357-0.006-107.032c-0.084-7.074,0.169-14.148-0.13-21.216
       c-36.493,0.039-72.986,0.071-109.478-0.013C793.052,248.926,786.835,232.831,780.591,216.749z"/>
	<path style="fill:#120E0C;stroke:#120E0C;stroke-width:0.0938;" d="M447.548,248.491c1.493-3.407,2.687-6.944,4.387-10.254c46.066,21.521,92.196,42.898,138.281,64.374
       c2.908,1.266,5.705,2.784,8.651,3.959c1.584-0.149,3.011-0.986,4.497-1.512c43.106-16.854,86.219-33.689,129.318-50.544
       c4.88-1.759,9.579-4.056,14.576-5.445c14.174,36.921,28.66,73.719,42.911,110.608c0.279,1.136,1.188,1.85,2.239,2.252
       c18.321,8.028,33.683,22.741,42.236,40.854c2.7,5.049,4.18,10.669,6.029,16.011c37.83,17.782,75.906,35.117,113.762,52.867
       c-20.709,50.005-41.548,99.951-62.238,149.969c20.138,51.355,40.127,102.781,60.259,154.142
       c-38.544,15.342-77.373,30.022-115.949,45.306c-7.055,16.718-19.515,31.067-35.175,40.25c-3.336,2.22-7.184,3.498-10.624,5.516
       c-4.686,10.54-8.865,21.339-13.363,31.969c-11.078,26.797-22.17,53.587-33.248,80.384c-0.617,1.369-0.98,2.895-1.895,4.115
       c-3.751-1.168-7.158-3.297-10.793-4.796c-45.04-20.969-90.1-41.906-135.133-62.894c-0.688-0.331-1.447-0.656-2.168-0.221
       c-49.031,19.139-98.056,38.304-147.094,57.429c-13.064-33.306-25.979-66.677-38.933-100.029c-0.428-0.98-0.766-2.343-2.051-2.395
       c-23.701-5.685-44.339-22.468-55.132-44.274c-4.115-8.138-6.834-16.984-7.95-26.038c-0.162-1.064-0.234-2.479-1.519-2.765
       c-33.916-15.693-67.826-31.411-101.73-47.13c20.554-50.031,41.451-99.925,62.167-149.898c-1.292-3.316-2.395-6.743-3.965-9.936
       c-5.348-1.778-10.63-4.063-14.959-7.768c-7.762-6.412-12.746-16.309-12.571-26.44c-0.084-6.516,1.953-13.019,5.568-18.425
       c0.286-0.649,1.077-1.298,0.72-2.057c-11.61-29.944-23.474-59.805-34.981-89.795c35.708-13.94,71.454-27.777,107.168-41.698
       c1.337-0.37,1.687-1.843,2.278-2.907c9.196-18.341,25.337-33.086,44.443-40.575c2.129-0.889,4.433-1.389,6.47-2.473
       c3.894-8.599,7.256-17.458,10.948-26.148C424.509,304.213,436.028,276.352,447.548,248.491 M453.201,242.098
       c-15.758,38.505-31.82,76.88-47.63,115.358c9.287-2.336,18.892-2.823,28.426-2.667c107.519,0,215.031-0.007,322.543,0
       c10.377,0.006,20.742,1.564,30.574,4.913c-13.791-35.746-27.686-71.454-41.639-107.136c-47.143,18.36-94.247,36.824-141.377,55.216
       c-1.908,0.532-3.777,2.077-5.776,1.674c-40.763-18.931-81.5-37.921-122.257-56.858C468.432,249.12,460.917,245.369,453.201,242.098
        M417.545,358.145c-22.183,2.31-43.132,14.291-56.371,32.242c-10.702,13.934-16.251,31.489-16.355,48.999
       c-0.104,20.975-0.013,41.944-0.045,62.92c-0.117,12.986,0.305,25.96,0.175,38.94c-0.084,18.386,0.195,36.778-0.182,55.158
       c0.026,63.822-0.032,127.644,0.032,191.466c0.084,15.18,3.998,30.451,12.13,43.34c12.084,19.956,33.164,34.228,56.235,37.836
       c8.372,1.48,16.919,1.207,25.395,1.24c101.879,0,203.764,0,305.643,0c8.476-0.032,16.997,0.24,25.415-0.896
       c24.642-3.128,47.337-18.444,59.623-40.004c6.834-11.773,10.585-25.285,10.909-38.888c0.221-7.366,0.045-14.739,0.104-22.105
       c0-107.285,0-214.576,0-321.861c0.032-5.873-0.026-11.76-0.746-17.588c-2.596-21.313-14.09-41.386-31.204-54.36
       c-12.396-9.657-27.706-15.459-43.353-16.673c-6.905-0.5-13.823-0.286-20.735-0.331c-100.814,0-201.629,0-302.443,0
       C433.692,357.626,425.599,357.353,417.545,358.145 M322.026,417.638c-25.57,10.014-51.231,19.807-76.75,29.932
       c11.221,28.666,22.371,57.358,33.624,86.011c7.042-7.418,16.861-12.246,27.167-12.454c11.961-0.013,23.928,0.013,35.889-0.013
       c0.065-25.96,0.019-51.926,0.026-77.886c-0.084-12.143,1.577-24.409,6.237-35.688C339.439,410.759,330.768,414.302,322.026,417.638
        M841.467,422.395c0.415,5.023,1.609,9.975,1.434,15.05c0.097,27.881,0.039,55.761,0.026,83.642
       c9.501,0.084,18.996,0.019,28.497,0.039c4.309,0.071,8.677-0.311,12.934,0.584c7.6,1.214,14.719,4.978,20.164,10.39
       c7.515,7.301,11.344,18.198,9.91,28.595c11.344-27.498,22.806-54.944,34.208-82.416c0.701-1.811,1.72-3.531,1.901-5.497
       c-12.136-5.354-24.084-11.13-36.155-16.627C890.083,444.896,865.797,433.597,841.467,422.395 M275.688,543.938
       c-3.381,7.691-3.453,16.809,0.013,24.486c4.082,9.683,13.233,16.757,23.364,19.158c5.718,1.395,11.63,0.974,17.458,1.038
       c8.508-0.007,17.017,0.006,25.518-0.013c0.026-21.54-0.065-43.08,0.052-64.62c-11.786-0.208-23.578-0.039-35.364-0.084
       C293.717,523.982,280.919,531.925,275.688,543.938 M842.94,523.897c-0.013,21.573,0.007,43.145-0.006,64.717
       c12.311-0.065,24.629,0.162,36.934-0.123c8.774-0.513,17.341-4.42,23.37-10.832c7.223-7.405,10.332-18.542,7.827-28.595
       c-2.797-11.87-12.973-21.287-24.707-24.097c-5.302-1.467-10.825-1.006-16.251-1.071
       C861.053,523.897,851.993,523.897,842.94,523.897 M877.22,591.38c-11.409,0.071-22.812,0.032-34.215,0.013
       c-0.162,66.126,0.026,132.252-0.091,198.378c-0.104,9.352-1.837,18.665-4.9,27.498c10.131-3.706,20.125-7.794,30.211-11.643
       c26.829-10.488,53.737-20.807,80.527-31.392c-19.71-50.641-39.511-101.236-59.253-151.858c-0.474-0.805-0.052-1.661,0.26-2.421
       c6.016-14.31,11.876-28.679,17.906-42.983C900.356,586.051,888.902,591.574,877.22,591.38 M301.408,591.029
       c1.038,3.141,2.369,6.178,3.531,9.281c-20.534,49.492-41.166,98.945-61.635,148.457c22.325,10.345,44.651,20.69,66.976,31.035
       c10.656,5.043,21.482,9.735,32.015,14.998c-0.526-8.995-0.234-18.01-0.305-27.017c-0.007-49.33,0-98.666,0-147.996
       c-0.11-9.469,0.208-18.951-0.162-28.406c-6.925,0.078-13.85,0.013-20.768,0.032C314.504,591.38,307.943,591.587,301.408,591.029
        M757.838,872.887c-111.192-0.013-222.39,0-333.582-0.007c-4.608,0.065-9.125-0.818-13.674-1.35
       c12.623,32.495,25.324,64.964,37.875,97.492c4.4-1.201,8.521-3.245,12.811-4.777c44.56-17.412,89.146-34.767,133.692-52.218
       c3.725,1.551,7.347,3.342,11.013,5.03c44.956,20.885,89.879,41.834,134.841,62.693c5.354-12.831,10.624-25.7,15.952-38.544
       c9.982-24.357,20.262-48.603,30.061-73.031C777.502,871.258,767.689,873.12,757.838,872.887z"/>
	<path style="fill:#773E18;stroke:#773E18;stroke-width:0.0938;" d="M453.201,242.098c7.717,3.271,15.232,7.022,22.864,10.501c40.757,18.938,81.494,37.927,122.257,56.858
       c1.999,0.402,3.868-1.142,5.776-1.674c47.13-18.392,94.234-36.856,141.377-55.216c13.953,35.682,27.848,71.389,41.639,107.136
       c-9.832-3.349-20.197-4.906-30.574-4.913c-107.512-0.007-215.024,0-322.543,0c-9.534-0.156-19.139,0.331-28.426,2.667
       C421.38,318.978,437.443,280.603,453.201,242.098z"/>
	<path style="fill:#773E18;stroke:#773E18;stroke-width:0.0938;" d="M279.543,267.967c31.47-0.013,62.946-0.039,94.415,0.013c-8.58,22.338-17.555,44.521-26.245,66.814
       c-0.182,1.077-1.194,1.467-2.083,1.817c-22.053,8.489-44.034,17.153-66.093,25.622
       C279.524,330.809,279.504,299.391,279.543,267.967z"/>
	<path style="fill:#773E18;stroke:#773E18;stroke-width:0.0938;" d="M800.561,267.987c19.924-0.078,39.855-0.013,59.779-0.032c15.29,0.11,30.594-0.214,45.871,0.162
       c-0.13,19.424-0.019,38.855-0.058,58.28c-0.195,22.234-0.045,44.462-0.097,66.697c-19.457-8.989-38.635-18.6-57.974-27.842
       c-3.972-2.077-8.229-3.654-12.026-6.01C824.152,328.856,812.32,298.431,800.561,267.987z"/>
	<path style="fill:#FFDA66;stroke:#FFDA66;stroke-width:0.0938;" d="M417.545,358.145c8.054-0.792,16.147-0.519,24.227-0.565c100.814,0,201.629,0,302.443,0
       c6.912,0.045,13.83-0.169,20.735,0.331c15.647,1.214,30.957,7.016,43.353,16.673c17.114,12.973,28.608,33.047,31.204,54.36
       c0.72,5.828,0.779,11.714,0.746,17.588c0,107.285,0,214.576,0,321.861c-0.058,7.366,0.117,14.739-0.104,22.105
       c-0.324,13.603-4.076,27.115-10.909,38.888c-12.285,21.56-34.981,36.876-59.623,40.004c-8.417,1.136-16.939,0.863-25.415,0.896
       c-101.879,0-203.764,0-305.643,0c-8.476-0.032-17.023,0.24-25.395-1.24c-23.072-3.608-44.151-17.88-56.235-37.836
       c-8.132-12.889-12.045-28.16-12.13-43.34c-0.065-63.822-0.007-127.644-0.032-191.466c0.376-18.38,0.097-36.772,0.182-55.158
       c0.13-12.98-0.292-25.953-0.175-38.94c0.032-20.975-0.058-41.944,0.045-62.92c0.104-17.51,5.653-35.065,16.355-48.999
       C374.413,372.436,395.362,360.455,417.545,358.145 M673.598,541.537c-14.33,3.193-27.498,11.137-37.161,22.17
       c0.662,0.63,1.324,1.259,1.999,1.902c3.842-4.076,7.84-8.067,12.539-11.169c12.863-8.982,28.952-13.155,44.566-11.643
       c14.025,1.162,27.394,7.184,38.07,16.277c0.532-0.746,1.077-1.48,1.629-2.207c-5.744-4.796-12.11-8.878-19.015-11.773
       C702.836,539.59,687.708,538.188,673.598,541.537 M466.018,546.112c-10.001,4.037-18.899,10.585-26.07,18.613
       c0.688,0.643,1.389,1.292,2.096,1.934c8.151-9.417,18.957-16.51,30.886-20.112c21.8-6.918,46.955-1.661,64.049,13.577
       c0.617-0.694,1.22-1.395,1.85-2.077c-4.089-3.511-8.521-6.613-13.285-9.118C507.443,539.162,484.969,538.182,466.018,546.112
        M564.444,616.528c6.996,13.966,13.973,27.946,20.962,41.918c-0.967,0.195-2.012,0.766-1.285,1.856
       c8.067,21.871,3.66,47.831-11.448,65.633c-8.632,10.429-20.463,18.217-33.507,21.884c-14.667,4.179-30.73,3.141-44.742-2.875
       c-12.87-5.419-23.773-15.024-31.132-26.849c-0.753,0.519-1.499,1.058-2.239,1.596c1.11,1.545,2.168,3.128,3.251,4.699
       c8.612,11.903,21.125,20.911,35.13,25.337c14.07,4.523,29.594,4.465,43.606-0.24c11.487-3.861,21.949-10.728,30.022-19.775
       c9.3-10.364,15.42-23.591,17.14-37.414c1.006,5.335,2.09,10.702,4.128,15.764c4.186,10.962,11.143,20.865,20.145,28.413
       c10.176,8.71,22.948,14.291,36.207,16.056c14.343,1.746,29.244-0.785,41.977-7.691c11.065-5.75,20.307-14.7,26.888-25.252
       c-0.792-0.5-1.571-0.986-2.356-1.46c-5.335,8.651-12.552,16.179-21.196,21.566c-13.226,8.58-29.581,12.221-45.196,10.046
       c-24.74-2.992-46.838-21.144-54.665-44.8c-5.224-14.719-4.764-31.165,0.591-45.78c-0.383-0.156-1.155-0.467-1.538-0.63
       c6.977-14.005,14.012-27.991,20.975-42.003C598.925,616.528,581.682,616.528,564.444,616.528z"/>
	<path style="fill:#773E18;stroke:#773E18;stroke-width:0.0938;" d="M322.026,417.638c8.742-3.336,17.412-6.879,26.193-10.098c-4.66,11.279-6.321,23.545-6.237,35.688
       c-0.006,25.96,0.039,51.926-0.026,77.886c-11.961,0.026-23.928,0-35.889,0.013c-10.306,0.208-20.125,5.036-27.167,12.454
       c-11.254-28.653-22.403-57.345-33.624-86.011C270.795,437.445,296.456,427.652,322.026,417.638z"/>
	<path style="fill:#773E18;stroke:#773E18;stroke-width:0.0938;" d="M841.467,422.395c24.331,11.202,48.616,22.501,72.921,33.761c12.071,5.497,24.019,11.273,36.155,16.627
       c-0.182,1.966-1.201,3.686-1.901,5.497c-11.403,27.472-22.864,54.918-34.208,82.416c1.434-10.397-2.395-21.293-9.91-28.595
       c-5.445-5.413-12.565-9.177-20.164-10.39c-4.257-0.896-8.625-0.513-12.934-0.584c-9.501-0.019-18.996,0.045-28.497-0.039
       c0.013-27.881,0.071-55.761-0.026-83.642C843.076,432.37,841.882,427.418,841.467,422.395z"/>
	<path style="fill:#773E18;stroke:#773E18;stroke-width:0.0938;" d="M173.848,498.515c9.008-9.378,17.841-18.918,26.992-28.147c6.847,17.458,13.629,34.935,20.489,52.387
       c0.831,1.434-0.954,2.362-1.694,3.342c-24.214,25.992-48.356,52.056-72.577,78.041c-0.63,0.643-1.635,1.629-0.467,2.395
       c21.67,23.176,43.197,46.481,64.841,69.676c0.604,0.506,0.74,1.136,0.402,1.882c-6.464,16.504-13.136,32.943-19.528,49.479
       c-11.377-11.494-22.358-23.383-33.592-35.02c-28.322-29.678-56.625-59.37-84.96-89.029
       C107.028,568.438,140.484,533.515,173.848,498.515z"/>
	<path style="fill:#773E18;stroke:#773E18;stroke-width:0.0938;" d="M995.706,477.605c1.798,1.077,3.018,2.83,4.491,4.29c37.362,39.199,74.784,78.34,112.139,117.552
       c1.149,1.415,2.856,2.492,3.641,4.141c-31.541,33.3-63.342,66.372-94.954,99.62c-12.097,12.506-23.935,25.174-36.11,37.68
       c-6.126-15.245-11.98-30.593-18.003-45.89c-0.701-2.693,1.526-5.459,1.908-8.112c25.051-27.192,50.394-54.126,75.452-81.312
       c-22.065-23.935-44.352-47.669-66.424-71.597C980.844,515.188,988.366,496.432,995.706,477.605z"/>
	<path style="fill:#773E18;stroke:#773E18;stroke-width:0.0938;" d="M193.435,558.398c9.865-10.475,19.5-21.164,28.696-31.859c7.95,20.294,15.855,40.614,23.805,60.908
       c0.35,0.759,0.402,1.622,0.013,2.388c-11.156,27.932-22.091,55.956-33.319,83.856c-7.164-7.281-13.94-9.053-20.962-22.364
       c-14.057-15.141-28.14-30.263-42.204-45.397c0.539-0.5,0.513-0.98,0.078-1.441C164.672,589.323,179.073,573.878,193.435,558.398z"/>
	<path style="fill:#773E18;stroke:#773E18;stroke-width:0.0938;" d="M939.069,620.597c11.149,27.887,22.065,55.877,33.165,83.871c21.06-23.065,42.561-45.734,63.705-68.728
       c-22.87-24.642-45.793-49.239-68.676-73.868c-1.558,1.584-2.868,3.459-4.757,4.686c-7.782-20.242-15.751-40.406-23.63-60.609
       C938.459,618.618,938.595,617.561,939.069,620.597z"/>
	<path style="fill:#773E18;stroke:#773E18;stroke-width:0.0938;" d="M226.488,792.334c11.895,5.451,23.726,11.519,35.84,17.525c4.764,2.369,9.638,4.513,14.317,7.048
       c-0.032,34.358-0.058,68.715-0.123,103.073c0.058,8.832-0.117,17.679,0.091,26.511c17.387-0.091,34.78-0.376,52.16-0.201
       c18.814,0.032,37.629,0.071,56.443,0.032c1.064,0.208,1.272,1.434,1.616,1.759c5.432,14.155,10.994,28.263,16.458,42.412
       c-9.274,0.175-18.529,0.675-27.803,0.188c-49.739-0.026-99.478-0.104-149.21-0.039c0.006-34.805-0.026-69.611,0.019-104.416
       C226.4,854.709,226.513,823.518,226.488,792.334z"/>
	<path style="fill:#773E18;stroke:#773E18;stroke-width:0.0938;" d="M279.556,817.787c23.299,11.306,46.63,22.533,69.939,33.791c10.734,27.388,21.326,54.821,32.002,82.234
       c1.162,3.113,2.537,6.152,3.511,9.358c-35.163-0.045-70.325-0.058-105.481-0.007C279.537,901.39,279.574,859.588,279.556,817.787z"/>
	<path style="fill:#773E18;stroke:#773E18;stroke-width:0.0938;" d="M953.47,830.404c3.31,1.208,6.516,2.72,9.752,4.409c0.104,35.072-0.169,70.143,0.084,105.215
       c0.007,19.463,0.039,38.92,0.007,58.383c-36.967,0.045-73.927-0.007-110.893,0.026c-19.859-0.045-39.718,0.143-59.571-0.214
       c5.886-14.661,11.623-29.387,17.419-44.086c32.839-0.376,65.672,0.331,98.51,0.065c0.143-32.807-0.052-65.62,0.097-98.426
       C923.844,841.924,938.66,836.162,953.47,830.404z"/>
	<path style="fill:#773E18;stroke:#773E18;stroke-width:0.0938;" d="M838.429,875.132c22.527-8.736,45.028-17.53,67.536-26.379c0.214,30.71-0.065,61.427,0.201,92.144
       c-0.117,0.72-0.559,2.395-0.98,2.168c-31.19-0.007-62.381,0.143-93.565-0.071C820.504,920.438,829.492,897.795,838.429,875.132z"/>
	<path style="fill:#773E18;stroke:#773E18;stroke-width:0.0938;" d="M552.315,986.674c13.903,4.387,28.573,9.423,48.653,14.083c13.57,6.575,27.134,13.168,40.698,19.749
       c1.031,0.201,0.559,1.246,0.032,1.707c-23.883,25.694-47.656,51.498-71.571,77.159c-17.029-18.334-34.007-36.719-51.043-55.047
       c-8.314-9.125-16.893-18.016-25.077-27.251C528.452,995.773,540.354,991.412,552.315,986.674z"/>
	<path style="fill:#120E0C;stroke:#120E0C;stroke-width:0.0938;" d="M335.701,993.184c-4.506-0.545-6.932-0.992-9.281-0.974c20.69,0.026,41.38,0.091,62.063,0.039
       c5.731,14.895,11.507,29.776,17.361,44.625c14.905-5.887,29.884-11.551,45.06-17.549c27.056,28.602,54.27,57.053,81.364,85.609
       c2.584,2.849,5.464,5.445,7.872,8.443c0.344,14.531-0.045,29.114,0.143,43.664c0,129.494-0.013,258.987-0.007,388.48
       c-17.885-7.678-37.485-10.773-56.871-10.715c-19.956,0.234-40.095,3.914-58.195,12.513c0.065-5.919-0.071-11.831-0.305-17.737
       c0.006-148.405,0.006-296.81-0.007-445.209c-0.922-0.019-1.837-0.006-2.739,0.013c0.006,146.478-0.006,292.949,0.007,439.426
       c-3.453-9.229-10.559-16.569-18.25-22.481c-3.951-2.953-8.112-5.633-12.584-7.723c0.24-31.041-0.006-62.102-0.104-93.15
       c-0.143-39.467,0.7-79.088-2.505-118.525c-2.901-31.917-8.164-63.829-18.6-94.214c-4.699-12.934-10.157-25.791-18.334-36.947
       c-5.685-7.678-13.084-14.966-22.741-17.023c-8.93-1.999-17.912,2.305-24.324,8.301c0.162-32.605,0.857-65.269,4.128-97.699
       c2.362-23.227,5.893-46.345,10.741-69.183C337.842,992.639,340.269,993.086,335.701,993.184 M791.838,993.002
       c21.306-0.136,42.612-0.019,63.917,0.078c6.535,30.996,10.695,62.485,12.96,94.078c1.635,22.3-1.714,44.676-1.966,67.034
       c-5.394-2.525-11.643-3.732-17.438-1.902c-9.962,2.758-17.25,10.819-22.935,19.035c-8.496,12.649-14.233,26.926-18.873,41.373
       c-8.1-25.434-12.558-51.874-15.517-78.353c-2.505-23.468-3.374-47.085-3.303-70.682c0.007-43.541,0-87.088-0.013-130.629
       c-12.064,5.536-23.298,13.486-31.002,24.441c0-141.039-0.013-282.085,0.006-423.124c-0.922-0.019-1.837-0.006-2.739,0.013
       c-0.006,140.41,0,280.826-0.006,421.242c-0.117,3.017,0.513,6.249-0.974,9.053c-3.31,6.983-3.511,14.828-3.258,22.416
       c-17.174-7.34-35.909-10.487-54.522-10.708c-19.308,0.013-38.856,3.051-56.651,10.767c0.052-142.266-0.006-284.538,0.026-426.803
       c0.149-5.335-0.318-10.747,0.227-16.03c23.591-25.051,47.422-49.907,71.13-74.861c17.588,8.638,35.247,17.119,52.854,25.7
       C775.736,1033.869,783.875,1019.47,791.838,993.002 M511.714,1002.51c0.902-0.344,2.148-0.941,3.005-1.772
       c20.814-22.474,41.672-44.903,62.453-67.404c3.908-3.584,7.23-7.743,10.929-11.533c26.007,28.205,52.246,56.189,78.139,84.479
       c14.303,6.97,28.646,13.849,42.924,20.878c-2.745,3.362-5.906,6.353-8.859,9.527c-36.058,37.887-72.051,75.84-108.161,113.677
       c-41.782-43.781-83.402-87.726-125.171-131.525C514.881,1013.356,513.805,1007.925,511.714,1002.51 M594.934,1154.582
       c15.329-16.005,30.522-32.139,45.839-48.273c-0.123,147.009,0.006,294.019-0.058,441.029c-13.078,6.029-25.519,14.895-32.781,27.608
       c-3.292,5.925-5.135,12.668-5.211,19.463c-1.869-0.013-3.731-0.013-5.594-0.02c0.11-11.305-5.3-22.059-13.071-30.029
       c-7.081-7.164-15.602-12.895-24.837-16.893c-0.312-12.694,0.007-25.401-0.13-38.102C594.94,1416.275,594.92,1285.432,594.934,1154.582
        M327.114,1158.625c5.084,0.396,10.75,3.784,15.299,7.957c6.918,6.535,11.968,14.745,16.277,23.169
       c6.153,12.376,10.748,25.486,14.356,38.816c7.91,28.341,11.714,57.65,13.966,86.932c1.182,16.167,1.577,32.385,1.532,48.597
       c0.006,44.372,0.013,88.743,0.013,133.115c-21.917-10.216-46.552-13.603-70.552-12.091c-13.408,1.019-26.797,3.511-39.387,8.307
       c-6.295,2.213-12.175,5.38-18.061,8.469c0-34.689-0.032-69.377,0.019-104.066c0.058-17.088-0.175-34.17-0.201-51.251
       c0.571-30.652,3.349-61.31,9.086-91.443c2.979-15.012,6.724-29.901,11.76-44.359c4.465-12.331,9.657-24.564,17.354-35.266
       C335.787,1166.399,331.638,1161.888,327.114,1158.625 M842.155,1161.565c4.672-4.128,10.559-7.405,16.854-6.912
       c7.82-0.117,13.266,8.914,17.951,25.012c5.678,11.768,10.136,24.117,13.57,36.727c7.684,27.063,11.643,55.041,13.914,83.032
       c2.136,23.727,2.057,47.578,1.999,71.376c0,41.03-0.013,82.053,0.006,123.082c-13.272-9.093-28.802-14.808-44.534-17.426
       c-27.841-4.848-57.319-2.829-83.499,8.236c0.026-24.759-0.006-49.518,0.013-74.277c0.071-27.277-0.221-54.554,0.312-81.825
       c1.441-36.486,5.145-73.109,14.602-108.466c3.822-14.349,8.682-28.51,15.316-41.795
       C829.908,1176.206,835.1,1167.989,842.155,1161.565 M336.622,1483.296c25.277,1.214,51.385,5.432,75.021,11.454
       c9.618,5.562,18.451,13.084,23.857,22.929c2.94,5.587,4.66,11.903,4.433,18.25c-0.026,3.174-0.11,6.347-0.091,9.534
       c-9.894,4.88-18.981,11.748-25.603,20.631c-5.036,6.905-8.288,15.31-8.249,23.928c-51.024,0.181-102.054-0.007-153.078,0.071
       c0.032-16.529-0.006-33.059-0.013-49.589c0.045-4.517,0.383-9.125,0.948-13.519c2.603-11.546,10.956-20.82,20.249-27.673
       C291.329,1490.396,314.134,1484.497,336.622,1483.296 M812.677,1487.904c21.67,5.688,44.581,6.208,66.604,2.051
       c16.121-3.161,32.059-8.898,45.319-18.782c10.52-7.897,19.368-19.613,19.846-33.209c0.078-18.86,0.052-37.719,0.013-56.579
       c-49.68-0.032-99.367-0.007-149.054-0.02c-0.045,8.729,3.187,17.279,8.469,24.22c7.548,10.033,18.178,17.348,29.529,22.481
       c0.013,5.504-0.435,11.117,0.999,16.491c2.116,9.417,8.217,17.426,15.349,23.695
       C784.887,1497.769,798.652,1491.805,812.677,1487.904 M456.757,1544.853c11.097,1.52,21.99,4.473,32.333,8.82
       c9.222,3.991,18.151,9.06,25.343,16.173c8.119,7.638,14.169,18.314,13.843,29.704c-0.032,18.263,0.013,36.532-0.026,54.801
       c-62.316,0-124.632,0-186.955,0c0.032-16.763,0-33.52,0.013-50.277c0.02-4.322-0.247-8.723,0.974-12.915
       c2.174-9.508,8.379-17.542,15.602-23.844C433.432,1554.205,445.025,1548.799,456.757,1544.853 M637.943,1551.901
       c18.879,0.331,37.908,3.764,55.119,11.74c8.19,3.757,15.959,8.638,22.429,14.946c7.84,7.5,13.616,17.763,13.694,28.822
       c0.007,18.516,0.039,37.025-0.019,55.541c-62.329-0.026-124.652-0.013-186.981-0.007c-0.045-18.509-0.026-37.012-0.013-55.521
       c0.065-10.429,5.224-20.216,12.402-27.537c5.724-5.945,12.636-10.657,19.95-14.421C657.438,1541.939,679.602,1538.071,637.943,1551.901z"/>
</g>
</svg>