<svg xmlns="http://www.w3.org/2000/svg" xml:space="preserve" id="Layer_1" x="0" y="0" viewBox="0 0 1189.92 1704.619"><path d="M470.97 182.579c41.38-43.366 82.623-86.861 123.964-130.259 43.288 45.468 86.55 90.963 129.831 136.444 12.986-5.056 25.966-10.144 38.953-15.219q7.854 20.218 15.719 40.426c62.225-.337 124.451-.032 186.676-.175.149 69.52-.032 139.04-.013 208.56 14.408 6.97 28.815 13.927 43.223 20.891-4.128 10.403-8.268 20.807-12.363 31.223 40.99 43.035 82.065 85.992 123.055 129.026-44.703 46.76-89.295 93.624-134.004 140.384 8.21 21.41 16.66 42.736 24.98 64.101-14.972 5.828-29.964 11.61-44.917 17.49.169 55.878.045 111.757.084 167.635-35.863.013-71.727-.02-107.59.019 4.796 22.916 8.359 46.091 10.76 69.377 3.362 30.918 4.238 62.05 4.03 93.13 10.241 6.84 16.958 17.601 22.539 28.316 10.592 21.579 16.802 45.027 21.287 68.553 4.893 25.908 7.379 52.218 8.489 78.547.513 14.933.402 29.88.409 44.826.013 42.1-.026 84.2.019 126.3 9.268 7.035 17.348 16.53 20.034 28.095 1.395 4.874.993 9.982 1.038 14.992-.006 17.192.013 34.377-.006 51.569-23.74.006-47.48 0-71.22 0-6.886.863-13.836.35-20.761.487-19.957 0-39.907.006-59.863 0-.071 18.334.078 36.668-.071 55.002H602.93c-.318-18.328-.019-36.675-.149-55.002a333 333 0 0 0-5.653.006c-.019 18.334.026 36.662-.019 54.996H404.565c-.078-18.334-.007-36.661-.032-54.996-26.959 0-53.912-.026-80.871.013-3.485.208-6.912-.701-10.397-.519-21.527.039-43.048 0-64.568.013.045-19.781-.104-39.569.071-59.35.649-16.069 11.883-29.575 24.908-37.934.201-39.719.026-79.443.084-119.162.019-20.235-.149-40.484 1.071-60.687.811-15.719 2.382-31.398 4.549-46.981 3.887-26.349 9.417-52.659 19.496-77.392 4.66-11.299 10.358-22.345 18.431-31.606.74-.701.727-1.739.759-2.654-.071-24.272.156-48.564 1.863-72.785 2.174-31.976 6.47-63.809 12.993-95.188-36.428.032-72.862.006-109.29.013-.058-31.638.136-63.277.078-94.915-.071-35.831.24-71.655 0-107.48-15.835-7.528-31.573-15.251-47.376-22.838 4.926-12.435 9.839-24.882 14.797-37.304-40.374-42.405-80.832-84.719-121.225-127.099 43.255-45.416 86.64-90.71 129.844-136.178-8.443-21.378-16.738-42.814-25.122-64.211 16.381-6.328 32.722-12.74 49.109-19.048.117-31.106-.117-62.212-.026-93.325.071-25.635-.247-51.27-.006-76.906 57.28.013 114.56.091 171.834-.039 7.392-18.996 14.985-37.908 22.384-56.904 17.716 8.498 35.362 17.149 53.047 25.722m2.823 1.201c14.511 7.262 29.185 14.206 43.768 21.332 25.038-27.024 50.122-54.009 75.088-81.098 2.557 2.057 4.53 4.712 6.808 7.061 24.266 26.025 48.285 52.289 72.655 78.217 16.562-6.444 33.086-12.993 49.674-19.372-2.479-3.141-5.497-5.808-8.151-8.8-39.569-41.587-79.099-83.207-118.694-124.775-40.413 42.443-80.852 84.874-121.148 127.435m97.667-32.638c-17.062 18.412-34.111 36.824-51.18 55.223 23.214 11.448 46.572 22.611 69.819 33.981q.971.613 2.051.175c25.629-9.923 51.167-20.086 76.828-29.938a19 19 0 0 0-.928-1.363c-25.058-27.005-50.05-54.081-75.153-81.046-7.302 7.509-14.266 15.342-21.437 22.968m-152.156 9.69c-23.163 59.123-46.604 118.136-69.832 177.233-5.354 2.258-10.832 4.218-16.231 6.38-51.66 20.008-103.248 40.212-154.94 60.123 3.063 8.43 6.496 16.725 9.709 25.103a1723899 1723899 0 0 0 61.842 158.367q.458 1.235-.214 2.46c-23.247 58.656-46.546 117.299-69.715 175.994 53.944 26.206 107.986 52.205 161.976 78.327 3.251 1.759 6.886 2.966 9.91 5.075 3.245 7.866 6.185 15.868 9.326 23.786 20.709 53.393 41.594 106.714 62.193 160.145 2.719-.63 5.231-1.889 7.84-2.836 53.191-20.794 106.389-41.555 159.574-62.355 1.707-.552 3.55-1.992 5.296-.746 56.696 27.543 113.437 55.009 170.12 82.584 23.37-58.877 46.507-117.844 69.825-176.734q.36-.964 1.382-1.207c51.997-20.21 103.988-40.439 155.985-60.655 4.653-1.921 9.488-3.446 14.025-5.646-23.656-60.311-47.136-120.687-70.773-181.004-.402-1.305-1.441-2.648-.779-4.03 23.299-58.857 46.669-117.688 69.961-176.552-57.306-27.79-114.729-55.366-171.99-83.246-23.799-61.447-47.818-122.815-71.61-184.262-57.072 22.196-114.06 44.625-171.139 66.794-55.748-27.095-111.529-54.126-167.284-81.215-1.433-.748-2.9-1.442-4.457-1.883m-192.907 55.735c-.065 55.424.11 110.848.084 166.272 16.776-6.464 33.553-12.934 50.271-19.554.006-32.703-.156-65.399-.143-98.095 2.038-.24 4.095-.182 6.152-.156 20.119-.006 40.238 0 60.363-.006 10.741-.104 21.501.221 32.235-.162 6.152-16.095 12.642-32.067 18.886-48.129-24.616-.117-49.239-.013-73.862-.052-19.243-.084-38.498.201-57.734-.195-12.083.058-24.168-.098-36.252.077m554.194.182c6.243 16.082 12.461 32.177 18.782 48.24 36.493.084 72.986.052 109.478.013.299 7.068.045 14.142.13 21.216.006 35.675-.013 71.357.006 107.032-.13.928.227 1.837 1.227 2.07 17.756 8.489 35.435 17.14 53.178 25.648-.019-33.248-.123-66.496.071-99.744.02-34.857-.032-69.721.026-104.585-22.468-.48-44.943.169-67.417.045-38.491.045-76.989-.078-115.481.065m-501.048 51.218c-.039 31.424-.019 62.842-.007 94.266 22.059-8.469 44.041-17.133 66.093-25.622.889-.35 1.902-.74 2.083-1.817 8.69-22.293 17.666-44.475 26.245-66.814-31.468-.052-62.944-.026-94.414-.013m521.018.02a20837 20837 0 0 0 35.493 91.255c3.797 2.356 8.054 3.933 12.026 6.01 19.34 9.242 38.518 18.853 57.974 27.842.052-22.234-.097-44.462.097-66.697.039-19.424-.071-38.855.058-58.28-15.277-.376-30.581-.052-45.871-.162-19.923.019-39.853-.046-59.777.032M173.848 498.515c-33.365 35-66.82 69.922-100.094 105.007 28.335 29.659 56.638 59.35 84.96 89.029 11.234 11.636 22.215 23.526 33.592 35.02 6.393-16.536 13.064-32.975 19.528-49.479.337-.746.201-1.376-.402-1.882-21.644-23.195-43.171-46.5-64.841-69.676-1.168-.766-.162-1.752.467-2.395 24.22-25.986 48.363-52.049 72.577-78.041.74-.98 2.525-1.908 1.694-3.342-6.86-17.451-13.642-34.929-20.489-52.387-9.151 9.228-17.984 18.768-26.992 28.146m821.858-20.91c-7.34 18.827-14.862 37.583-22.293 56.371 22.072 23.928 44.359 47.662 66.424 71.597-25.058 27.186-50.401 54.12-75.452 81.312-.383 2.654 1.824 5.419 2.525 8.112 6.023 15.29 11.877 30.645 18.003 45.89 12.175-12.428 24.013-25.174 36.11-37.68 31.612-33.248 63.413-66.321 94.954-99.62-.785-1.648-2.492-2.726-3.641-4.141-37.356-39.212-74.777-78.353-112.139-117.552-1.473-1.46-2.693-3.212-4.491-4.289m-802.271 80.793c-14.362 15.485-28.763 30.924-43.119 46.403q-.886.691-.078 1.441c14.064 15.134 28.147 30.256 42.204 45.397 7.022 7.418 13.798 15.083 20.962 22.364 11.228-27.9 22.163-55.924 33.319-83.856.389-.766.337-1.629-.013-2.388-7.95-20.294-15.855-40.614-23.805-60.908-9.968 10.383-19.605 21.072-29.47 31.547m745.634 62.199c-.474.922-.61 1.979-.084 2.927 7.879 20.203 15.848 40.367 23.63 60.609 1.888-1.227 3.199-3.096 4.757-4.686 22.883-24.629 45.806-49.226 68.676-73.868-21.144-22.994-42.645-45.663-63.705-68.728-11.208 27.868-22.125 55.859-33.274 83.746M226.488 792.334c-.013 31.184.11 62.375-.084 93.559-.019 34.805.026 69.611-.019 104.416 49.732.091 99.471.013 149.21.039 9.274.091 18.529-.357 27.803-.188-5.464-14.148-11.026-28.257-16.458-42.412-.344-.72-.552-1.966-1.616-1.759-18.814-.071-37.629 0-56.443-.032-17.38.389-34.773.11-52.16.201-.208-8.833-.032-17.679-.091-26.511.117-34.358.091-68.715.123-103.073-4.679-2.525-9.553-4.679-14.317-7.048-12.013-5.673-23.844-11.741-35.948-17.192m53.068 25.453c-.065 41.802-.019 83.603-.026 125.405 35.156.065 70.318.052 105.481.007-.974-3.2-2.349-6.243-3.511-9.358-10.676-27.414-21.268-54.846-32.002-82.234-23.312-11.287-46.643-22.514-69.942-33.82m673.914 12.617c-14.81 5.769-29.626 11.52-44.436 17.283-.149 32.807.045 65.62-.097 98.426-32.839.273-65.672-.441-98.51-.065-5.796 14.7-11.533 29.425-17.419 44.086 19.853.357 39.712.169 59.571.214 36.967-.019 73.927.032 110.893-.026-.02-19.463 0-38.92-.007-58.383.084-35.072-.188-70.143-.084-105.215-3.395.96-6.601 2.472-9.911 3.68m-115.041 44.728c-8.937 22.663-17.925 45.306-26.79 67.995 31.184.214 62.375.071 93.565.071 1.305.24.863-1.447.98-2.168-.065-30.717.013-61.434-.201-92.144-22.526 8.717-45.027 17.511-67.554 26.246M552.315 986.674c-11.851 4.738-23.863 9.099-35.61 14.077 8.184 9.235 16.763 18.126 25.077 27.251 17.036 18.328 34.014 36.713 51.043 55.047 23.915-25.661 47.688-51.465 71.571-77.159.519-.461.999-1.506-.032-1.707-13.564-6.581-27.128-13.174-40.698-19.749-9.806-4.66-19.476-9.696-29.38-14.083-14.039 5.304-27.973 10.904-41.971 16.323m-216.614 6.51c-4.848 22.838-8.379 45.955-10.741 69.183-3.595 32.43-4.29 65.094-4.128 97.699 6.412-6.003 15.394-10.299 24.324-8.301 9.657 2.057 17.056 9.345 22.741 17.023 8.177 11.156 13.635 24.013 18.334 36.947 10.436 30.386 15.699 62.297 18.6 94.214 3.303 33.637 2.362 67.469 2.505 101.217.071 31.048-.136 62.109.104 93.15 4.472 2.09 8.632 4.77 12.584 7.723 7.691 5.912 14.797 13.252 18.25 22.481-.019-146.478-.007-292.949-.007-439.426a78 78 0 0 1 2.739.013q-.018 222.6-.007 445.209c.234 5.906.37 11.818.305 17.737 18.1-8.599 38.239-12.279 58.195-12.513 19.385-.058 38.985 3.037 56.871 10.715.019-129.494.007-258.987.007-388.48-.097-14.55.201-29.133-.143-43.664-2.408-2.998-5.289-5.594-7.872-8.443-27.095-28.556-54.308-57.007-81.364-85.609-15.076 5.698-30.055 11.662-45.06 17.549a5820 5820 0 0 1-17.361-44.625c-20.683-.091-41.373-.013-62.063-.039-2.245.142-4.672-.305-6.813.24m456.137-.182c-7.963 20.469-16.102 40.867-24.143 61.304-17.607-8.58-35.266-17.062-52.854-25.7-23.708 24.954-47.539 49.81-71.13 74.861-.545 5.283-.078 10.695-.227 16.03-.019 142.266.026 284.538-.026 426.803 17.795-7.716 37.343-10.78 56.651-10.767 18.613.221 37.349 3.368 54.522 10.708-.253-7.587-.052-15.433 3.258-22.416 1.493-2.804.857-6.036.974-9.053.006-140.416 0-280.832.006-421.242a78 78 0 0 1 2.739.013c-.019 141.039-.006 282.085-.006 423.124 7.704-10.955 18.938-18.905 31.002-24.441.019-43.541.006-87.088.013-130.629-.071-23.597.798-47.214 3.303-70.682 2.959-26.479 7.418-52.919 15.517-78.353 4.64-14.447 10.377-28.724 18.873-41.373 5.685-8.216 12.973-16.277 22.935-19.035 5.795-1.83 12.045-.623 17.438 1.902.013-22.358-.331-44.735-1.966-67.034-2.265-31.593-6.425-63.082-12.96-94.078-21.306.039-42.612-.078-63.919.058m-280.124 9.508c-13.953 5.575-28.03 10.845-41.951 16.497 41.769 43.8 83.389 87.744 125.171 131.525 36.11-37.836 72.103-75.789 108.161-113.677 2.953-3.174 6.114-6.165 8.859-9.527-14.278-7.029-28.621-13.908-42.924-20.878-1.35-.967-2.129 1.071-3.005 1.772-20.781 22.501-41.639 44.93-62.453 67.404-3.699 3.79-7.022 7.95-10.929 11.533-25.908-28.29-52.147-56.274-78.139-84.479-.642-1.111-1.888-.514-2.79-.17m83.22 152.072c-11.98-12.5-23.863-25.097-35.831-37.609.019 130.85.006 261.693.013 392.543.084 12.701-.182 25.408.13 38.102 9.235 3.998 17.756 9.728 24.837 16.893 7.775 7.97 13.181 18.724 13.071 30.029 1.863.006 3.725.006 5.594.02.078-6.795 1.921-13.538 5.211-19.463 7.262-12.714 19.703-21.579 32.781-27.608.058-147.01-.065-294.02.058-441.029-15.342 15.99-30.535 32.124-45.864 48.122m-267.82 4.043c-4.848 3.264-8.697 7.775-12.169 12.422-7.697 10.702-12.889 22.935-17.354 35.266-5.036 14.459-8.781 29.347-11.76 44.359-5.737 30.133-8.515 60.791-9.086 91.443-.37 17.081-.143 34.163-.201 51.251-.013 34.689.019 69.377-.019 104.066 5.886-3.089 11.766-6.256 18.061-8.469 12.59-4.796 25.979-7.288 39.387-8.307 24-1.512 48.635 1.875 70.552 12.091-.026-44.372-.006-88.743-.013-133.115.045-16.212-.35-32.43-1.532-48.597-2.252-29.282-6.055-58.591-13.966-86.932-3.608-13.33-8.203-26.44-14.356-38.816-4.303-8.424-9.358-16.634-16.277-23.169-4.549-4.173-10.215-7.574-16.497-8.002-5.281-.41-10.46 1.569-14.77 4.509m515.041 2.94c-7.055 6.451-12.247 14.641-16.575 23.091-6.691 13.285-11.494 27.446-15.316 41.795-9.456 35.357-13.162 71.98-14.602 108.466-.532 27.271-.24 54.548-.312 81.825-.013 24.759.013 49.518-.013 74.277 26.18-11.065 55.658-13.084 83.499-8.236 15.732 2.947 31.262 8.333 44.534 17.426-.019-41.029-.006-82.052-.006-123.082.058-23.798.136-47.649-1.999-71.376-2.278-27.991-6.23-55.969-13.914-83.032-3.433-12.61-7.892-24.96-13.57-36.727-4.686-9.151-10.131-18.185-17.951-25.012-4.692-3.959-10.579-7.029-16.854-6.912-6.375.092-12.249 3.369-16.921 7.497m-505.533 321.731c-22.488 1.201-45.293 7.1-63.932 20.125-9.294 6.853-17.646 16.127-20.249 27.673-1.246 4.394-.902 9.002-.948 13.519.007 16.53-.019 33.06.013 49.589 51.024-.039 102.054.11 153.078-.071-.052-8.619 3.213-17.023 8.249-23.928 6.626-8.891 15.712-15.751 25.603-20.631.156-3.187.065-6.36.091-9.534.227-6.347-1.493-12.662-4.433-18.25-5.406-9.845-14.239-17.367-23.857-22.929-22.228-12.558-48.337-16.776-73.615-15.563m476.055 4.608c-14.025 3.901-27.79 9.865-38.933 19.411-7.132 6.269-13.233 14.278-15.349 23.695-1.428 5.374-.986 10.987-.999 16.491 11.351 5.127 21.981 12.448 29.529 22.481 5.192 6.951 8.424 15.491 8.469 24.22 49.687.02 99.374-.013 149.054.02.039-18.86.065-37.719-.013-56.579-.474-13.596-9.326-25.311-19.846-33.209-13.259-9.884-29.198-15.621-45.319-18.782-22.013-3.959-44.923-3.439-66.593 2.252m-355.92 56.949c-11.799 3.946-23.325 9.352-32.846 17.484-7.223 6.302-13.428 14.336-15.602 23.844-1.22 4.192-.954 8.593-.974 12.915.013 16.757-.019 33.514.013 50.277h186.955c.045-18.269-.006-36.538.026-54.801.273-11.39-5.724-22.066-13.843-29.704-7.184-7.113-16.121-12.182-25.343-16.173-10.332-4.348-21.235-7.301-32.333-8.82-22.025-3.076-44.785-1.674-66.053 4.978m181.186 7.048c-7.314 3.764-14.226 8.476-19.95 14.421-7.178 7.321-12.337 17.108-12.402 27.537-.013 18.509-.032 37.012.013 55.521 62.329-.006 124.652-.019 186.981.007.058-18.516.026-37.025.019-55.541-.078-11.059-5.854-21.326-13.694-28.822-6.47-6.308-14.239-11.189-22.429-14.946-17.211-7.976-36.24-11.409-55.119-11.74-21.76-.267-43.924 3.601-63.419 13.563z" style="fill:#120e0c;stroke:#120e0c;stroke-width:.0938"/><path d="M473.793 183.78c40.296-42.561 80.735-84.992 121.147-127.436 39.595 41.568 79.125 83.188 118.694 124.775 2.654 2.992 5.672 5.659 8.151 8.8-16.588 6.38-33.112 12.928-49.674 19.372-24.37-25.927-48.389-52.192-72.655-78.217-2.278-2.349-4.251-5.004-6.808-7.061-24.967 27.089-50.05 54.074-75.088 81.098-14.582-7.125-29.255-14.069-43.767-21.331z" style="fill:#773e18;stroke:#773e18;stroke-width:.0938"/><path d="M571.46 151.142c7.171-7.626 14.135-15.459 21.436-22.968 25.103 26.966 50.096 54.042 75.153 81.046q.489.652.928 1.363c-25.661 9.852-51.199 20.015-76.828 29.938q-1.079.438-2.051-.175c-23.247-11.37-46.604-22.533-69.819-33.981 17.07-18.399 34.119-36.811 51.181-55.223z" style="fill:#773e18;stroke:#773e18;stroke-width:.0938"/><path d="M419.304 160.832c1.558.441 3.024 1.136 4.459 1.882 55.755 27.089 111.536 54.119 167.284 81.215 57.079-22.17 114.067-44.599 171.139-66.794 23.792 61.447 47.811 122.815 71.61 184.262 57.261 27.881 114.683 55.456 171.99 83.246-23.292 58.864-46.663 117.695-69.961 176.552-.662 1.382.376 2.726.779 4.03 23.636 60.317 47.117 120.693 70.773 181.004-4.536 2.2-9.372 3.725-14.025 5.646-51.997 20.216-103.988 40.445-155.985 60.655q-1.022.244-1.382 1.207c-23.318 58.89-46.455 117.857-69.825 176.734-56.683-27.576-113.424-55.041-170.12-82.584-1.746-1.246-3.589.195-5.296.746-53.185 20.8-106.383 41.561-159.574 62.355-2.609.947-5.121 2.207-7.84 2.836-20.599-53.432-41.484-106.753-62.193-160.145-3.141-7.918-6.081-15.92-9.326-23.786-3.024-2.109-6.659-3.316-9.91-5.075-53.99-26.122-108.031-52.121-161.976-78.327 23.169-58.695 46.468-117.338 69.715-175.994.448-.818.519-1.635.214-2.46q-30.925-79.183-61.842-158.367c-3.213-8.379-6.646-16.673-9.709-25.103 51.692-19.911 103.281-40.114 154.94-60.123 5.4-2.161 10.877-4.121 16.231-6.38 23.226-59.096 46.667-118.109 69.83-177.232m28.244 87.659q-17.28 41.79-34.559 83.59c-3.693 8.69-7.055 17.549-10.948 26.148-2.038 1.084-4.342 1.584-6.47 2.473-19.106 7.489-35.247 22.234-44.443 40.575-.591 1.064-.941 2.538-2.278 2.907-35.714 13.921-71.461 27.757-107.168 41.698 11.507 29.99 23.37 59.85 34.981 89.795.357.759-.435 1.408-.72 2.057-3.615 5.406-5.653 11.909-5.568 18.425-.175 10.131 4.809 20.028 12.571 26.44 4.329 3.706 9.612 5.99 14.959 7.768 1.571 3.193 2.674 6.62 3.965 9.936-20.716 49.972-41.613 99.867-62.167 149.898 33.903 15.719 67.813 31.437 101.73 47.13 1.285.286 1.356 1.7 1.519 2.765 1.116 9.053 3.836 17.899 7.95 26.038 10.793 21.806 31.431 38.589 55.132 44.274 1.285.052 1.622 1.415 2.051 2.395 12.954 33.352 25.869 66.723 38.933 100.029 49.038-19.126 98.063-38.291 147.094-57.429.72-.435 1.48-.11 2.168.221 45.034 20.988 90.093 41.925 135.133 62.894 3.634 1.499 7.042 3.628 10.793 4.796.915-1.22 1.279-2.745 1.895-4.115 11.078-26.797 22.17-53.587 33.248-80.384 4.498-10.63 8.677-21.43 13.363-31.969 3.44-2.018 7.288-3.297 10.624-5.516 15.66-9.183 28.121-23.532 35.175-40.25 38.576-15.284 77.405-29.964 115.949-45.306-20.132-51.361-40.121-102.787-60.259-154.142 20.69-50.018 41.529-99.964 62.238-149.969-37.856-17.75-75.932-35.085-113.762-52.867-1.85-5.341-3.329-10.961-6.029-16.011-8.554-18.113-23.915-32.826-42.236-40.854-1.051-.402-1.96-1.116-2.239-2.252-14.252-36.889-28.737-73.687-42.911-110.608-4.997 1.389-9.696 3.686-14.576 5.445-43.1 16.854-86.212 33.689-129.318 50.544-1.486.526-2.914 1.363-4.497 1.512-2.946-1.175-5.744-2.693-8.651-3.959-46.085-21.475-92.215-42.853-138.281-64.374-1.704 3.308-2.898 6.845-4.391 10.252z" style="fill:#773e18;stroke:#773e18;stroke-width:.0938"/><path d="M226.397 216.567c12.084-.175 24.168-.019 36.253-.078 19.236.396 38.492.11 57.734.195 24.623.039 49.246-.065 73.862.052-6.243 16.063-12.733 32.034-18.886 48.129-10.734.383-21.495.058-32.235.162-20.125.006-40.244 0-60.363.006-2.057-.026-4.115-.084-6.152.156-.013 32.696.149 65.392.143 98.095-16.718 6.62-33.495 13.09-50.271 19.554.026-55.423-.15-110.847-.085-166.271zM780.591 216.749c38.492-.143 76.99-.019 115.482-.065 22.475.123 44.949-.526 67.417-.045-.058 34.864-.006 69.728-.026 104.585-.195 33.248-.091 66.496-.071 99.744-17.743-8.508-35.422-17.159-53.178-25.648-.999-.234-1.356-1.142-1.227-2.07-.019-35.675 0-71.357-.006-107.032-.084-7.074.169-14.148-.13-21.216-36.493.039-72.986.071-109.478-.013-6.322-16.063-12.539-32.158-18.783-48.24z" style="fill:#773e18;stroke:#773e18;stroke-width:.0938"/><path d="M447.548 248.491c1.493-3.407 2.687-6.944 4.387-10.254 46.066 21.521 92.196 42.898 138.281 64.374 2.908 1.266 5.705 2.784 8.651 3.959 1.584-.149 3.011-.986 4.497-1.512 43.106-16.854 86.219-33.689 129.318-50.544 4.88-1.759 9.579-4.056 14.576-5.445 14.174 36.921 28.66 73.719 42.911 110.608.279 1.136 1.188 1.85 2.239 2.252 18.321 8.028 33.683 22.741 42.236 40.854 2.7 5.049 4.18 10.669 6.029 16.011 37.83 17.782 75.906 35.117 113.762 52.867-20.709 50.005-41.548 99.951-62.238 149.969 20.138 51.355 40.127 102.781 60.259 154.142-38.544 15.342-77.373 30.022-115.949 45.306-7.055 16.718-19.515 31.067-35.175 40.25-3.336 2.22-7.184 3.498-10.624 5.516-4.686 10.54-8.865 21.339-13.363 31.969-11.078 26.797-22.17 53.587-33.248 80.384-.617 1.369-.98 2.895-1.895 4.115-3.751-1.168-7.158-3.297-10.793-4.796-45.04-20.969-90.1-41.906-135.133-62.894-.688-.331-1.447-.656-2.168-.221-49.031 19.139-98.056 38.304-147.094 57.429-13.064-33.306-25.979-66.677-38.933-100.029-.428-.98-.766-2.343-2.051-2.395-23.701-5.685-44.339-22.468-55.132-44.274-4.115-8.138-6.834-16.984-7.95-26.038-.162-1.064-.234-2.479-1.519-2.765a146324 146324 0 0 1-101.73-47.13c20.554-50.031 41.451-99.925 62.167-149.898-1.292-3.316-2.395-6.743-3.965-9.936-5.348-1.778-10.63-4.063-14.959-7.768-7.762-6.412-12.746-16.309-12.571-26.44-.084-6.516 1.953-13.019 5.568-18.425.286-.649 1.077-1.298.72-2.057-11.61-29.944-23.474-59.805-34.981-89.795 35.708-13.94 71.454-27.777 107.168-41.698 1.337-.37 1.687-1.843 2.278-2.907 9.196-18.341 25.337-33.086 44.443-40.575 2.129-.889 4.433-1.389 6.47-2.473 3.894-8.599 7.256-17.458 10.948-26.148q17.284-41.798 34.563-83.588m5.653-6.393c-15.758 38.505-31.82 76.88-47.63 115.358 9.287-2.336 18.892-2.823 28.426-2.667 107.519 0 215.031-.007 322.543 0 10.377.006 20.742 1.564 30.574 4.913a25284 25284 0 0 0-41.639-107.136c-47.143 18.36-94.247 36.824-141.377 55.216-1.908.532-3.777 2.077-5.776 1.674-40.763-18.931-81.5-37.921-122.257-56.858-7.633-3.478-15.148-7.229-22.864-10.5m-35.656 116.047c-22.183 2.31-43.132 14.291-56.371 32.242-10.702 13.934-16.251 31.489-16.355 48.999-.104 20.975-.013 41.944-.045 62.92-.117 12.986.305 25.96.175 38.94-.084 18.386.195 36.778-.182 55.158.026 63.822-.032 127.644.032 191.466.084 15.18 3.998 30.451 12.13 43.34 12.084 19.956 33.164 34.228 56.235 37.836 8.372 1.48 16.919 1.207 25.395 1.24h305.643c8.476-.032 16.997.24 25.415-.896 24.642-3.128 47.337-18.444 59.623-40.004 6.834-11.773 10.585-25.285 10.909-38.888.221-7.366.045-14.739.104-22.105V446.532c.032-5.873-.026-11.76-.746-17.588-2.596-21.313-14.09-41.386-31.204-54.36-12.396-9.657-27.706-15.459-43.353-16.673-6.905-.5-13.823-.286-20.735-.331H441.772c-8.08.046-16.173-.227-24.227.565m-95.519 59.493c-25.57 10.014-51.231 19.807-76.75 29.932 11.221 28.666 22.371 57.358 33.624 86.011 7.042-7.418 16.861-12.246 27.167-12.454 11.961-.013 23.928.013 35.889-.013.065-25.96.019-51.926.026-77.886-.084-12.143 1.577-24.409 6.237-35.688-8.78 3.219-17.451 6.762-26.193 10.098m519.441 4.757c.415 5.023 1.609 9.975 1.434 15.05.097 27.881.039 55.761.026 83.642 9.501.084 18.996.019 28.497.039 4.309.071 8.677-.311 12.934.584 7.6 1.214 14.719 4.978 20.164 10.39 7.515 7.301 11.344 18.198 9.91 28.595 11.344-27.498 22.806-54.944 34.208-82.416.701-1.811 1.72-3.531 1.901-5.497-12.136-5.354-24.084-11.13-36.155-16.627-24.303-11.259-48.589-22.558-72.919-33.76M275.688 543.938c-3.381 7.691-3.453 16.809.013 24.486 4.082 9.683 13.233 16.757 23.364 19.158 5.718 1.395 11.63.974 17.458 1.038 8.508-.007 17.017.006 25.518-.013.026-21.54-.065-43.08.052-64.62-11.786-.208-23.578-.039-35.364-.084-13.012.079-25.81 8.022-31.041 20.035m567.252-20.041c-.013 21.573.007 43.145-.006 64.717 12.311-.065 24.629.162 36.934-.123 8.774-.513 17.341-4.42 23.37-10.832 7.223-7.405 10.332-18.542 7.827-28.595-2.797-11.87-12.973-21.287-24.707-24.097-5.302-1.467-10.825-1.006-16.251-1.071l-27.167.001m34.28 67.483c-11.409.071-22.812.032-34.215.013-.162 66.126.026 132.252-.091 198.378-.104 9.352-1.837 18.665-4.9 27.498 10.131-3.706 20.125-7.794 30.211-11.643 26.829-10.488 53.737-20.807 80.527-31.392-19.71-50.641-39.511-101.236-59.253-151.858-.474-.805-.052-1.661.26-2.421 6.016-14.31 11.876-28.679 17.906-42.983-7.309 9.079-18.763 14.602-30.445 14.408m-575.812-.351c1.038 3.141 2.369 6.178 3.531 9.281-20.534 49.492-41.166 98.945-61.635 148.457l66.976 31.035c10.656 5.043 21.482 9.735 32.015 14.998-.526-8.995-.234-18.01-.305-27.017-.007-49.33 0-98.666 0-147.996-.11-9.469.208-18.951-.162-28.406-6.925.078-13.85.013-20.768.032-6.556-.033-13.117.174-19.652-.384m456.43 281.858c-111.192-.013-222.39 0-333.582-.007-4.608.065-9.125-.818-13.674-1.35 12.623 32.495 25.324 64.964 37.875 97.492 4.4-1.201 8.521-3.245 12.811-4.777 44.56-17.412 89.146-34.767 133.692-52.218 3.725 1.551 7.347 3.342 11.013 5.03 44.956 20.885 89.879 41.834 134.841 62.693 5.354-12.831 10.624-25.7 15.952-38.544 9.982-24.357 20.262-48.603 30.061-73.031-9.325 3.083-19.138 4.945-28.989 4.712z" style="fill:#120e0c;stroke:#120e0c;stroke-width:.0938"/><path d="M453.201 242.098c7.717 3.271 15.232 7.022 22.864 10.501 40.757 18.938 81.494 37.927 122.257 56.858 1.999.402 3.868-1.142 5.776-1.674 47.13-18.392 94.234-36.856 141.377-55.216a25232 25232 0 0 1 41.639 107.136c-9.832-3.349-20.197-4.906-30.574-4.913-107.512-.007-215.024 0-322.543 0-9.534-.156-19.139.331-28.426 2.667 15.809-38.479 31.872-76.854 47.63-115.359zM279.543 267.967c31.47-.013 62.946-.039 94.415.013-8.58 22.338-17.555 44.521-26.245 66.814-.182 1.077-1.194 1.467-2.083 1.817-22.053 8.489-44.034 17.153-66.093 25.622-.013-31.424-.033-62.842.006-94.266zM800.561 267.987c19.924-.078 39.855-.013 59.779-.032 15.29.11 30.594-.214 45.871.162-.13 19.424-.019 38.855-.058 58.28-.195 22.234-.045 44.462-.097 66.697-19.457-8.989-38.635-18.6-57.974-27.842-3.972-2.077-8.229-3.654-12.026-6.01a20465 20465 0 0 1-35.495-91.255z" style="fill:#773e18;stroke:#773e18;stroke-width:.0938"/><path d="M417.545 358.145c8.054-.792 16.147-.519 24.227-.565h302.443c6.912.045 13.83-.169 20.735.331 15.647 1.214 30.957 7.016 43.353 16.673 17.114 12.973 28.608 33.047 31.204 54.36.72 5.828.779 11.714.746 17.588v321.861c-.058 7.366.117 14.739-.104 22.105-.324 13.603-4.076 27.115-10.909 38.888-12.285 21.56-34.981 36.876-59.623 40.004-8.417 1.136-16.939.863-25.415.896H438.559c-8.476-.032-17.023.24-25.395-1.24-23.072-3.608-44.151-17.88-56.235-37.836-8.132-12.889-12.045-28.16-12.13-43.34-.065-63.822-.007-127.644-.032-191.466.376-18.38.097-36.772.182-55.158.13-12.98-.292-25.953-.175-38.94.032-20.975-.058-41.944.045-62.92.104-17.51 5.653-35.065 16.355-48.999 13.239-17.951 34.188-29.932 56.371-32.242m256.053 183.392c-14.33 3.193-27.498 11.137-37.161 22.17l1.999 1.902c3.842-4.076 7.84-8.067 12.539-11.169 12.863-8.982 28.952-13.155 44.566-11.643 14.025 1.162 27.394 7.184 38.07 16.277a92 92 0 0 1 1.629-2.207c-5.744-4.796-12.11-8.878-19.015-11.773-13.389-5.504-28.517-6.906-42.627-3.557m-207.58 4.575c-10.001 4.037-18.899 10.585-26.07 18.613.688.643 1.389 1.292 2.096 1.934 8.151-9.417 18.957-16.51 30.886-20.112 21.8-6.918 46.955-1.661 64.049 13.577.617-.694 1.22-1.395 1.85-2.077-4.089-3.511-8.521-6.613-13.285-9.118-18.101-9.767-40.575-10.747-59.526-2.817m98.426 70.416c6.996 13.966 13.973 27.946 20.962 41.918-.967.195-2.012.766-1.285 1.856 8.067 21.871 3.66 47.831-11.448 65.633-8.632 10.429-20.463 18.217-33.507 21.884-14.667 4.179-30.73 3.141-44.742-2.875-12.87-5.419-23.773-15.024-31.132-26.849-.753.519-1.499 1.058-2.239 1.596 1.11 1.545 2.168 3.128 3.251 4.699 8.612 11.903 21.125 20.911 35.13 25.337 14.07 4.523 29.594 4.465 43.606-.24 11.487-3.861 21.949-10.728 30.022-19.775 9.3-10.364 15.42-23.591 17.14-37.414 1.006 5.335 2.09 10.702 4.128 15.764 4.186 10.962 11.143 20.865 20.145 28.413 10.176 8.71 22.948 14.291 36.207 16.056 14.343 1.746 29.244-.785 41.977-7.691 11.065-5.75 20.307-14.7 26.888-25.252-.792-.5-1.571-.986-2.356-1.46-5.335 8.651-12.552 16.179-21.196 21.566-13.226 8.58-29.581 12.221-45.196 10.046-24.74-2.992-46.838-21.144-54.665-44.8-5.224-14.719-4.764-31.165.591-45.78-.383-.156-1.155-.467-1.538-.63 6.977-14.005 14.012-27.991 20.975-42.003z" style="fill:#ffda66;stroke:#ffda66;stroke-width:.0938"/><path d="M322.026 417.638c8.742-3.336 17.412-6.879 26.193-10.098-4.66 11.279-6.321 23.545-6.237 35.688-.006 25.96.039 51.926-.026 77.886-11.961.026-23.928 0-35.889.013-10.306.208-20.125 5.036-27.167 12.454-11.254-28.653-22.403-57.345-33.624-86.011 25.519-10.125 51.18-19.918 76.75-29.932zM841.467 422.395c24.331 11.202 48.616 22.501 72.921 33.761 12.071 5.497 24.019 11.273 36.155 16.627-.182 1.966-1.201 3.686-1.901 5.497-11.403 27.472-22.864 54.918-34.208 82.416 1.434-10.397-2.395-21.293-9.91-28.595-5.445-5.413-12.565-9.177-20.164-10.39-4.257-.896-8.625-.513-12.934-.584-9.501-.019-18.996.045-28.497-.039.013-27.881.071-55.761-.026-83.642.173-5.076-1.021-10.028-1.436-15.051zM173.848 498.515c9.008-9.378 17.841-18.918 26.992-28.147 6.847 17.458 13.629 34.935 20.489 52.387.831 1.434-.954 2.362-1.694 3.342-24.214 25.992-48.356 52.056-72.577 78.041-.63.643-1.635 1.629-.467 2.395 21.67 23.176 43.197 46.481 64.841 69.676.604.506.74 1.136.402 1.882-6.464 16.504-13.136 32.943-19.528 49.479-11.377-11.494-22.358-23.383-33.592-35.02-28.322-29.678-56.625-59.37-84.96-89.029 33.274-35.083 66.73-70.006 100.094-105.006zM995.706 477.605c1.798 1.077 3.018 2.83 4.491 4.29 37.362 39.199 74.784 78.34 112.139 117.552 1.149 1.415 2.856 2.492 3.641 4.141-31.541 33.3-63.342 66.372-94.954 99.62-12.097 12.506-23.935 25.252-36.11 37.68-6.127-15.245-11.98-30.6-18.003-45.89-.701-2.693-2.907-5.458-2.525-8.112 25.051-27.193 50.394-54.126 75.452-81.312-22.066-23.935-44.352-47.669-66.424-71.597 7.431-18.789 14.953-37.545 22.293-56.372z" style="fill:#773e18;stroke:#773e18;stroke-width:.0938"/><path d="M275.688 543.938c5.231-12.013 18.029-19.957 31.041-20.034 11.786.045 23.578-.123 35.364.084-.117 21.54-.026 43.08-.052 64.62-8.502.019-17.01.006-25.518.013-5.828-.065-11.74.357-17.458-1.038-10.131-2.401-19.282-9.475-23.364-19.158-3.465-7.678-3.394-16.796-.013-24.487zM842.94 523.897h27.167c5.426.065 10.949-.396 16.251 1.071 11.734 2.81 21.91 12.227 24.707 24.097 2.505 10.053-.604 21.19-7.827 28.595-6.029 6.412-14.596 10.319-23.37 10.832-12.305.286-24.623.058-36.934.123.013-21.573-.007-43.145.006-64.718z" style="fill:#ffda66;stroke:#ffda66;stroke-width:.0938"/><path d="M193.435 558.398c9.865-10.475 19.502-21.164 29.471-31.548 7.95 20.294 15.855 40.614 23.805 60.908.35.759.402 1.622.013 2.388-11.156 27.933-22.092 55.956-33.319 83.856-7.165-7.282-13.94-14.946-20.962-22.364-14.057-15.141-28.14-30.263-42.204-45.397q-.808-.75.078-1.441c14.355-15.478 28.756-30.917 43.118-46.402zM939.069 620.597c11.15-27.887 22.066-55.878 33.274-83.746 21.06 23.065 42.561 45.734 63.705 68.728-22.871 24.642-45.793 49.239-68.676 73.868-1.558 1.59-2.869 3.459-4.757 4.686-7.781-20.242-15.751-40.406-23.63-60.609-.526-.947-.39-2.005.084-2.927z" style="fill:#773e18;stroke:#773e18;stroke-width:.0938"/><path d="M673.598 541.537c14.109-3.349 29.237-1.947 42.626 3.556 6.905 2.895 13.272 6.977 19.015 11.773a90 90 0 0 0-1.629 2.207c-10.676-9.092-24.045-15.115-38.07-16.277-15.615-1.512-31.703 2.661-44.566 11.643-4.699 3.102-8.697 7.094-12.539 11.169l-1.999-1.902c9.665-11.032 22.833-18.976 37.162-22.169zM466.018 546.112c18.951-7.931 41.425-6.951 59.526 2.817 4.764 2.505 9.196 5.607 13.285 9.118-.629.681-1.233 1.382-1.85 2.077-17.094-15.238-42.249-20.495-64.049-13.577-11.928 3.602-22.734 10.695-30.886 20.112a223 223 0 0 1-2.096-1.934c7.172-8.028 16.069-14.576 26.07-18.613z" style="fill:#120e0c;stroke:#120e0c;stroke-width:.0938"/><path d="M877.22 591.38c11.682.195 23.137-5.328 30.444-14.408-6.029 14.304-11.889 28.672-17.906 42.983-.312.759-.733 1.616-.26 2.421 19.742 50.621 39.543 101.217 59.253 151.858-26.79 10.585-53.698 20.904-80.527 31.392-10.085 3.849-20.08 7.937-30.211 11.643 3.063-8.833 4.796-18.146 4.9-27.498.117-66.126-.071-132.252.091-198.378 11.404.019 22.806.058 34.216-.013zM301.408 591.029c6.535.558 13.097.35 19.651.383 6.918-.019 13.843.045 20.768-.032.37 9.456.052 18.938.162 28.406 0 49.33-.007 98.666 0 147.996.071 9.008-.221 18.022.305 27.017-10.533-5.263-21.358-9.956-32.015-14.998l-66.976-31.035c20.469-49.512 41.101-98.965 61.635-148.457-1.161-3.101-2.492-6.139-3.53-9.28z" style="fill:#773e18;stroke:#773e18;stroke-width:.0938"/><path d="M564.444 616.528h51.718c-6.964 14.012-13.999 27.998-20.975 42.003.383.162 1.155.474 1.538.63-5.354 14.615-5.815 31.061-.591 45.78 7.827 23.656 29.925 41.808 54.665 44.8 15.615 2.174 31.969-1.467 45.196-10.046 8.645-5.387 15.861-12.915 21.196-21.566.785.474 1.564.961 2.356 1.46-5.335 8.651-12.552 16.179-21.196 21.566-13.226 8.58-29.581 12.221-45.196 10.046-24.74-2.992-46.838-21.144-54.665-44.8-5.224-14.719-4.764-31.165.591-45.78-.383-.156-1.155-.467-1.538-.63 6.977-14.005 14.012-27.991 20.975-42.003m24.091 47.987c.402 3.271 1.584 6.425 1.538 9.767.668-3.297 1.188-6.626 2.213-9.832a237 237 0 0 0-2.025 3.764c-.59-1.24-1.142-2.473-1.726-3.699z" style="fill:#120e0c;stroke:#120e0c;stroke-width:.0938"/><path d="M588.535 664.515c.584 1.227 1.136 2.46 1.726 3.699a225 225 0 0 1 2.025-3.764c-1.025 3.206-1.545 6.535-2.213 9.832.046-3.342-1.136-6.497-1.538-9.767z" style="fill:#ffda66;stroke:#ffda66;stroke-width:.0938"/><path d="M226.488 792.334c12.104 5.452 23.935 11.52 35.948 17.192 4.764 2.369 9.638 4.523 14.317 7.048-.032 34.358-.007 68.715-.123 103.073.058 8.833-.117 17.679.091 26.511 17.387-.091 34.78.188 52.16-.201 18.814.032 37.629-.039 56.443.032 1.064-.208 1.272 1.038 1.616 1.759 5.432 14.155 10.994 28.264 16.458 42.412-9.274-.169-18.529.279-27.803.188-49.739-.026-99.478.052-149.21-.039.045-34.805 0-69.611.019-104.416.194-31.185.071-62.375.084-93.559z" style="fill:#773e18;stroke:#773e18;stroke-width:.0938"/><path d="M279.556 817.787c23.299 11.305 46.63 22.533 69.942 33.819 10.734 27.388 21.326 54.82 32.002 82.234 1.162 3.115 2.538 6.159 3.511 9.358-35.162.045-70.325.058-105.481-.007.007-41.801-.039-83.602.026-125.404zM953.47 830.404c3.31-1.207 6.516-2.719 9.91-3.68-.104 35.072.169 70.143.084 105.215.007 19.463-.013 38.92.007 58.383-36.967.058-73.927.007-110.893.026-19.859-.045-39.718.143-59.571-.214 5.886-14.661 11.624-29.386 17.419-44.086 32.839-.376 65.672.337 98.51.065.143-32.807-.052-65.62.097-98.426 14.81-5.764 29.627-11.514 44.437-17.283z" style="fill:#773e18;stroke:#773e18;stroke-width:.0938"/><path d="M838.429 875.132c22.527-8.735 45.027-17.529 67.554-26.245.214 30.71.136 61.427.201 92.144-.117.72.324 2.408-.98 2.168-31.19 0-62.381.143-93.565-.071 8.865-22.69 17.854-45.333 26.79-67.996zM757.838 872.887c9.852.234 19.664-1.629 28.991-4.712-9.8 24.428-20.08 48.674-30.061 73.031 9.325-3.083 19.138-4.945 28.989-4.712-5.354 12.831-10.624 25.7-15.952 38.544-44.962-20.854-89.885-41.803-134.841-62.693-3.666-1.687-7.241-3.478-11.013-5.029 44.545 17.451 89.131 34.806 133.692 52.218 4.289 1.532 8.41 3.576 12.811 4.777-12.551-32.528-25.252-64.997-37.875-97.492 4.549.532 9.066 1.415 13.674 1.35z" style="fill:#120e0c;stroke:#120e0c;stroke-width:.0938"/></svg>